<svg version="1.0" xmlns="http://www.w3.org/2000/svg" width="720.000000pt" height="720.000000pt" viewBox="0 0 700.000000 700.000000" preserveAspectRatio="xMidYMid meet">
<metadata>Created by Nate May</metadata>
<g transform="translate(0.000000,700.000000) scale(0.100000,-0.100000)" stroke="none">
<path d="M207 6983 c-62 -21 -140 -91 -175 -157 l-27 -51 -3 -3255 c-3 -3715
-13 -3320 92 -3425 106 -106 -287 -95 3406 -95 3693 0 3300 -11 3405 95 106
105 95 -288 95 3404 0 3688 11 3302 -94 3407 -99 99 -55 94 -847 94 l-678 0
-3 -362 -3 -363 -26 -56 c-54 -114 -137 -170 -265 -177 -72 -4 -89 -1 -136 20
-75 34 -122 79 -155 146 l-28 57 -3 368 -3 367 -1224 0 -1225 0 0 -358 c0
-421 0 -424 -89 -513 -65 -65 -124 -89 -216 -89 -93 0 -151 24 -215 89 -93 94
-93 97 -98 514 l-4 357 -716 -1 c-631 0 -723 -2 -765 -16z m6168 -3933 l0
-2425 -2875 0 -2875 0 -3 2415 c-1 1328 0 2421 3 2428 3 10 584 12 2877 10
l2873 -3 0 -2425z"></path>
<path d="M2539 5243 c-177 -155 -246 -310 -236 -533 9 -185 -66 -23 789 -1715
761 -1505 818 -1617 874 -1701 101 -154 276 -293 445 -355 355 -131 725 -41
990 239 128 136 204 279 241 460 25 119 21 337 -7 442 -93 344 -359 610 -692
692 -120 29 -313 29 -426 -1 -159 -42 -294 -115 -410 -221 l-56 -51 -44 83
c-24 46 -205 403 -402 793 -197 391 -490 973 -652 1295 -163 322 -304 593
-315 603 -29 25 -39 22 -99 -30z m2332 -2917 c26 -8 66 -24 90 -37 60 -30 170
-143 202 -205 130 -257 33 -561 -221 -687 l-85 -42 -121 0 c-119 0 -122 1
-199 37 -217 104 -328 339 -272 576 38 159 155 291 310 349 72 26 223 31 296
9z"></path>
<path d="M4398 5278 c-9 -7 -186 -349 -393 -760 l-376 -746 171 -342 c94 -188
175 -340 181 -338 6 2 168 315 360 695 385 761 390 774 392 948 3 202 -82 382
-241 512 -56 46 -69 50 -94 31z"></path>
<path d="M2177 2789 c-221 -30 -449 -160 -588 -335 -243 -305 -285 -700 -114
-1050 56 -115 116 -195 210 -281 109 -101 250 -178 400 -218 94 -26 273 -31
379 -10 239 44 474 197 601 390 39 59 334 630 336 650 1 18 -336 683 -347 684
-6 1 -23 -26 -39 -59 -16 -33 -31 -60 -35 -60 -3 0 -24 18 -45 41 -96 99 -268
193 -418 229 -98 24 -248 32 -340 19z m275 -470 c140 -47 253 -159 304 -300
84 -239 -25 -510 -253 -625 l-76 -39 -127 0 -126 0 -79 39 c-251 123 -352 420
-231 673 59 122 163 215 284 254 82 26 224 25 304 -2z"></path>
</g>
</svg>