<?xml version="1.0" encoding="iso-8859-1"?>
<!-- Generator: Adobe Illustrator 19.0.0, SVG Export Plug-In . SVG Version: 6.00 Build 0)  -->
<svg version="1.1" xmlns="http://www.w3.org/2000/svg" xmlns:xlink="http://www.w3.org/1999/xlink" x="0px" y="0px"
	 viewBox="0 0 511.999 511.999" style="enable-background:new 0 0 511.999 511.999;" xml:space="preserve">
<g>
	<g>
		<path d="M391.415,151.244l21.942-77.017c1.482-5.203,2.234-10.557,2.234-15.912c0-25.923-17.377-48.98-42.251-56.072
			c-30.882-8.815-63.174,9.134-71.993,40.023l-4.114,14.444v-1.705h-79.464L181.525,2.548L84.496,48.544l30.905,94.923
			l-15.319-5.817v374.349h327.421v-374.21L391.415,151.244z M304.244,141.602l27.76,7.209l7.541-29.037l-27.081-7.033l5.103-17.915
			l30.205,7.845l7.541-29.037l-29.525-7.668l4.407-15.473c2.06-7.208,6.84-13.205,13.463-16.887
			c6.623-3.682,14.239-4.572,21.452-2.516c12.06,3.438,20.482,14.634,20.482,27.225c0,2.574-0.365,5.161-1.086,7.69l-27.991,98.253
			l-22.737,8.478l-34.443-13.9L304.244,141.602z M217.11,85.005h72.062l-17.814,62.541l-10.934-4.413l-55.923,24.198L217.11,85.005z
			 M121.192,64.35l50.145-23.772l18.197,26.338l-15.154,98.949l-22.979-8.725l-14-42.998l25.566-12.515l-13.19-26.945l-21.755,10.65
			L121.192,64.35z M397.502,482H130.08V445h267.421V482z M397.502,415.001H130.08V181.13l62.888,23.88l67.859-29.363l72.521,29.268
			l64.153-23.922V415.001z"/>
	</g>
</g>
<g>
</g>
<g>
</g>
<g>
</g>
<g>
</g>
<g>
</g>
<g>
</g>
<g>
</g>
<g>
</g>
<g>
</g>
<g>
</g>
<g>
</g>
<g>
</g>
<g>
</g>
<g>
</g>
<g>
</g>
</svg>
