<?xml version="1.0" encoding="iso-8859-1"?>
<!-- Generator: Adobe Illustrator 19.0.0, SVG Export Plug-In . SVG Version: 6.00 Build 0)  -->
<svg version="1.1" xmlns="http://www.w3.org/2000/svg" xmlns:xlink="http://www.w3.org/1999/xlink" x="0px" y="0px"
	 viewBox="0 0 512 512" style="enable-background:new 0 0 512 512;" xml:space="preserve">
<g>
	<g>
		<path d="M313.998,84.515c-35.782,0-64.892,29.11-64.892,64.892v4.85l6.883-2.45l39.117,13.922l39.115-13.922l39.122,13.922
			l5.547-1.974v-14.348C378.89,113.626,349.78,84.515,313.998,84.515z"/>
	</g>
</g>
<g>
	<g>
		<path d="M219.106,62.536l-33.203,14.919L173.607,50.09l44.399-19.95C213.848,12.872,198.281,0,179.755,0
			c-21.698,0-39.351,17.652-39.351,39.351v125.754l37.355-13.297l39.116,13.921l2.231-0.794v-15.528v-31.995l-33.203,14.919
			l-12.296-27.365l45.499-20.443V62.536z"/>
	</g>
</g>
<g>
	<g>
		<polygon points="373.343,197.573 334.222,183.651 295.106,197.573 255.989,183.651 216.875,197.573 177.76,183.651 
			138.651,197.573 114.536,188.99 114.536,512 397.464,512 397.464,188.989 		"/>
	</g>
</g>
<g>
</g>
<g>
</g>
<g>
</g>
<g>
</g>
<g>
</g>
<g>
</g>
<g>
</g>
<g>
</g>
<g>
</g>
<g>
</g>
<g>
</g>
<g>
</g>
<g>
</g>
<g>
</g>
<g>
</g>
</svg>
