<svg viewbox="0 0 373.517 373.517" xmlns="http://www.w3.org/2000/svg">

 <g>
  <title>background</title>
  <rect fill="none" height="402" width="582" y="-1" x="-1"/>
 </g>
 <g>
  <title>Layer 1</title>
  <g stroke="null">
   <g stroke="null">
    <path stroke="null" d="m229.202537,159.73331c-2.078395,1.081115 -4.417058,2.512987 -6.722953,4.35051c-2.31713,1.821706 -4.655793,3.983936 -6.570351,6.762084c-1.000813,1.458854 -1.675823,2.85351 -2.327428,4.340276c-0.587942,1.470018 -1.087881,2.918638 -1.501687,4.334693c-0.772377,2.843276 -1.250782,5.513499 -1.458622,7.837617c-0.217202,2.324118 -0.184434,4.280731 0,5.664223c0.141368,1.382562 0.609475,2.118501 0.642243,2.074773c-0.075833,0 -0.118899,-0.735009 0.272438,-2.010576c0.348272,-1.274636 0.956811,-3.037728 1.718889,-5.145064c0.79391,-2.085937 1.707655,-4.51798 2.805834,-7.03748c0.522407,-1.242072 1.131883,-2.528804 1.783488,-3.760642c0.609475,-1.204857 1.306019,-2.535316 2.088694,-3.528974c3.218704,-4.383074 7.788365,-8.393991 10.976174,-11.491264c1.663652,-1.550962 3.045504,-2.832111 4.024784,-3.729009c0.955875,-0.896897 1.61965,-1.383492 1.61965,-1.383492s-0.782675,0.065127 -2.121461,0.507994c-1.324743,0.387043 -3.163467,1.106235 -5.229692,2.214331z"/>
    <path stroke="null" d="m58.451128,48.796236l0,-31.651914l4.878612,-5.820528l240.188537,0l0,-11.323793l-245.524021,0l-10.936853,13.053391l0,35.742845l-0.032767,0l0,298.720754l264.194003,0l0,-298.720754l-252.76751,0zm199.097164,154.322154c-14.097512,13.999599 -32.61021,15.555213 -42.248534,10.431548c-7.243489,1.221604 -15.076792,10.452947 -20.602328,19.425641c12.270022,12.17231 56.411581,56.038402 56.411581,56.038402l0,0.021399c0.032767,0.042798 0.087068,0.053963 0.141368,0.106995c3.405011,3.416397 3.405011,8.896402 -0.011235,12.280236c-3.415309,3.416397 -8.963314,3.416397 -12.35709,0.021399c-0.043066,-0.043728 -0.075833,-0.107925 -0.108601,-0.150723l0,0.020469c0,0 -39.985704,-39.72585 -54.397784,-54.05946c-15.157306,15.068618 -54.681457,54.340438 -54.681457,54.340438l-0.021533,0c-0.032767,0.043728 -0.064599,0.087457 -0.108601,0.140489c-3.463992,3.44803 -9.076596,3.44803 -12.552759,0c-0.168519,-0.183287 -0.837912,-0.8327 -1.016729,-1.015987c-3.475227,-3.469429 -3.475227,-9.026657 0,-12.485852c0.044002,-0.031633 0.102984,-0.075362 0.136687,-0.107925l-0.021533,0c0,0 42.558421,-42.319781 56.280511,-55.952806c-5.591071,-7.523145 -14.510382,-16.23626 -28.934633,-16.376749c-0.02715,-0.011165 -0.081451,-0.021399 -0.124516,-0.021399c-5.48247,0.150723 -11.013623,-1.66447 -15.424127,-5.480936c-0.315504,-0.259579 -1.038261,-1.004823 -1.038261,-1.004823l-30.272483,-37.927404l3.638128,-3.632248l37.060035,38.986189l4.377737,-4.356092l-38.136682,-37.916239l3.202788,-3.156818l38.376352,38.13209l3.62783,-3.609918l-38.370735,-38.126508l3.530463,-3.497341l38.375416,38.13116l4.297223,-4.290965l-39.611219,-36.910486l3.32356,-3.307541l36.510478,28.251334c0,0 1.326615,1.123913 1.783488,1.577944c5.009682,4.972011 7.162974,11.749913 6.450515,18.236601c0.990515,16.279058 10.409765,24.365089 17.888243,28.948197c9.691688,-5.513499 20.492791,-13.998668 21.809108,-21.835355c-5.155731,-9.534651 -3.57821,-27.949887 10.508067,-41.954138c13.967378,-13.890743 34.394634,-19.139081 48.035273,-6.021493l0.011235,-0.011165c0.055237,0.065127 0.272438,0.286561 0.337037,0.35727l0,0c13.17066,13.587435 7.873561,33.871828 -6.072285,47.762571zm27.738151,-99.386266l-202.795209,0l0,-19.760582l202.795209,0l0,19.760582z"/>
   </g>
  </g>
  <g/>
  <g/>
  <g/>
  <g/>
  <g/>
  <g/>
  <g/>
  <g/>
  <g/>
  <g/>
  <g/>
  <g/>
  <g/>
  <g/>
  <g/>
  <rect stroke="#fff" height="69.426772" width="71.756991" y="278.946751" x="241.664352" stroke-width="0" fill="#f8f8ff"/>
  <g stroke="null" transform="matrix(0.2954012416301338,0,0,0.28580865211601936,-771.8828004699001,-741.2530266538756) "/>
  <g stroke="null" transform="matrix(0.2954012416301338,0,0,0.28580865211601936,-771.8828004699001,-741.2530266538756) "/>
  <g stroke="null" transform="matrix(0.2954012416301338,0,0,0.28580865211601936,-771.8828004699001,-741.2530266538756) "/>
  <g stroke="null" transform="matrix(0.2954012416301338,0,0,0.28580865211601936,-771.8828004699001,-741.2530266538756) "/>
  <g stroke="null" transform="matrix(0.2954012416301338,0,0,0.28580865211601936,-771.8828004699001,-741.2530266538756) "/>
  <g stroke="null" transform="matrix(0.2954012416301338,0,0,0.28580865211601936,-771.8828004699001,-741.2530266538756) "/>
  <g stroke="null" transform="matrix(0.2954012416301338,0,0,0.28580865211601936,-771.8828004699001,-741.2530266538756) "/>
  <g stroke="null" transform="matrix(0.2954012416301338,0,0,0.28580865211601936,-771.8828004699001,-741.2530266538756) "/>
  <g stroke="null" transform="matrix(0.2954012416301338,0,0,0.28580865211601936,-771.8828004699001,-741.2530266538756) "/>
  <g stroke="null" transform="matrix(0.2954012416301338,0,0,0.28580865211601936,-771.8828004699001,-741.2530266538756) "/>
  <g stroke="null" transform="matrix(0.2954012416301338,0,0,0.28580865211601936,-771.8828004699001,-741.2530266538756) "/>
  <g stroke="null" transform="matrix(0.2954012416301338,0,0,0.28580865211601936,-771.8828004699001,-741.2530266538756) "/>
  <g stroke="null" transform="matrix(0.2954012416301338,0,0,0.28580865211601936,-771.8828004699001,-741.2530266538756) "/>
  <g stroke="null" transform="matrix(0.2954012416301338,0,0,0.28580865211601936,-771.8828004699001,-741.2530266538756) "/>
  <g stroke="null" transform="matrix(0.2954012416301338,0,0,0.28580865211601936,-771.8828004699001,-741.2530266538756) "/>
  <ellipse stroke="#fff" ry="66.50001" rx="70.318166" cy="305.803934" cx="268.576919" stroke-opacity="null" stroke-width="0" fill="#f8f8ff"/>
  <g stroke="null" transform="matrix(0.2954012416301338,0,0,0.28580865211601936,-771.8828004699001,-741.2530266538756) ">
   <path stroke="#fff" stroke-width="0" fill="#5a71d2" d="m3520.651435,3457.385714c-115.146,0 -208.489,93.343 -208.489,208.489c0,115.146 93.343,208.489 208.489,208.489s208.49,-93.344 208.49,-208.489c0,-115.146 -93.344,-208.489 -208.49,-208.489zm120.517,235.1c0,6.299 -5.105,11.404 -11.404,11.404l-71.099,0l0,71.1c0,6.298 -5.106,11.404 -11.404,11.404l-53.22,0c-6.298,0 -11.404,-5.106 -11.404,-11.404l0,-71.1l-71.1,0c-6.298,0 -11.404,-5.106 -11.404,-11.404l0,-53.22c0,-6.298 5.106,-11.404 11.404,-11.404l71.1,0l0,-71.1c0,-6.298 5.105,-11.404 11.404,-11.404l53.22,0c6.298,0 11.404,5.106 11.404,11.404l0,71.1l71.099,0c6.299,0 11.404,5.106 11.404,11.404l0,53.22l0,0z"/>
  </g>
 </g>
</svg>