<?xml version="1.0" encoding="iso-8859-1"?>
<!-- Generator: Adobe Illustrator 16.0.0, SVG Export Plug-In . SVG Version: 6.00 Build 0)  -->
<!DOCTYPE svg PUBLIC "-//W3C//DTD SVG 1.1//EN" "http://www.w3.org/Graphics/SVG/1.1/DTD/svg11.dtd">
<svg version="1.1" xmlns="http://www.w3.org/2000/svg" xmlns:xlink="http://www.w3.org/1999/xlink" x="0px" y="0px"
	 width="336.749px" height="336.75px" viewBox="0 0 336.749 336.75" style="enable-background:new 0 0 336.749 336.75;"
	 xml:space="preserve">
<g>
	<g>
		<path d="M211.477,85.8c0-10.12-14.59-18.325-32.589-18.325H32.583C14.59,67.475,0,75.68,0,85.8v18.331h211.471
			C211.477,104.125,211.477,95.926,211.477,85.8z"/>
		<path d="M198.726,189.014v-74.02H12.739v74.026c0,17.993,14.589,32.582,32.58,32.582h120.827
			C184.136,221.597,198.726,207.007,198.726,189.014z M40.49,201.667c-4.458-0.584-8.062-4.798-8.062-9.292v-50.914
			c0-4.5,3.568-7.438,8.007-6.695c12.763,2.138,38.989,5.824,65.781,5.331c26.625-0.481,52.227-3.711,64.792-5.538
			c4.445-0.648,8.044,2.396,8.044,6.896v50.909c0,4.499-3.604,8.731-8.068,9.328c-11.983,1.596-36.209,4.251-64.767,4.251
			C77.484,205.949,52.687,203.263,40.49,201.667z"/>
		<polygon points="96.535,149.648 85.635,149.648 80.185,159.083 85.635,168.518 96.535,168.518 101.984,159.083 		"/>
		<polygon points="103.991,179.077 114.89,179.077 120.34,169.638 114.89,160.207 103.991,160.207 98.541,169.638 		"/>
		<polygon points="103.991,181.378 98.541,190.817 103.991,200.25 114.89,200.25 120.34,190.817 114.89,181.378 		"/>
		<polygon points="122.59,170.759 117.14,180.191 122.59,189.624 133.49,189.624 138.939,180.191 133.49,170.759 		"/>
		<path d="M320.521,231.194l-118.854,9.554h-64.478c-9,0-13.058,6.698-6.829,13.189c7.008,7.295,18.109,14.967,33.971,15.32
			c30.547,0.67,40.058-19.01,40.058-19.01l116.096,6.539c8.987,0.512,16.265-5.31,16.265-12.994
			C336.755,236.121,329.479,230.482,320.521,231.194z M180.97,255.277c-19.774,10.984-33.749-0.244-33.886-0.365
			c-0.112-0.092-0.207-0.195-0.268-0.316c-0.25-0.414-0.226-0.975,0.106-1.364c0.411-0.518,1.172-0.585,1.69-0.165
			s12.906,10.279,31.207,0.122c0.578-0.335,1.211-0.152,1.625,0.457C181.749,254.229,181.542,254.948,180.97,255.277z"/>
	</g>
</g>
<g>
</g>
<g>
</g>
<g>
</g>
<g>
</g>
<g>
</g>
<g>
</g>
<g>
</g>
<g>
</g>
<g>
</g>
<g>
</g>
<g>
</g>
<g>
</g>
<g>
</g>
<g>
</g>
<g>
</g>
</svg>
