<?xml version="1.0" encoding="iso-8859-1"?>
<!-- Generator: Adobe Illustrator 17.1.0, SVG Export Plug-In . SVG Version: 6.00 Build 0)  -->
<!DOCTYPE svg PUBLIC "-//W3C//DTD SVG 1.1//EN" "http://www.w3.org/Graphics/SVG/1.1/DTD/svg11.dtd">
<svg version="1.1" xmlns="http://www.w3.org/2000/svg" xmlns:xlink="http://www.w3.org/1999/xlink" x="0px" y="0px"
	 viewBox="0 0 298.045 298.045" style="enable-background:new 0 0 298.045 298.045;" xml:space="preserve">
<g>
	<path d="M195.614,100.045h3.083c8.779,0,15.896-6.721,15.896-15.5s-7.116-15.5-15.896-15.5h-5.223c0.001-1-0.392-0.412-0.392-0.496
		c0-18.949-11.962-35.369-28.962-41.768V15.896C164.12,7.116,157.4,0,148.621,0S133.12,7.116,133.12,15.896v10.886
		c-17,6.398-28.559,22.818-28.559,41.768c0,0.084,0.009-0.504,0.01,0.496h-5.223c-8.779,0-15.896,6.721-15.896,15.5
		s7.116,15.5,15.896,15.5h4.077c-10.953,3-19.306,13.466-19.306,25.411v25.589h24.17c4.39,0,7.948,3.611,7.948,8
		c0,4.389-3.559,8-7.948,8H84.12v25h24.17c4.39,0,7.948,3.611,7.948,8c0,4.389-3.559,8-7.948,8H84.12v24h24.17
		c4.39,0,7.948,3.611,7.948,8c0,4.39-3.559,8-7.948,8H84.12v23.892c0,14.42,12.016,26.108,26.435,26.108h77.931
		c14.419,0,25.635-11.688,25.635-26.108v-146.48C214.12,113.511,206.566,103.045,195.614,100.045z"/>
</g>
<g>
</g>
<g>
</g>
<g>
</g>
<g>
</g>
<g>
</g>
<g>
</g>
<g>
</g>
<g>
</g>
<g>
</g>
<g>
</g>
<g>
</g>
<g>
</g>
<g>
</g>
<g>
</g>
<g>
</g>
</svg>
