<?xml version='1.0' encoding='iso-8859-1'?>
<svg version="1.1" xmlns="http://www.w3.org/2000/svg" viewBox="0 0 235.88 235.88" xmlns:xlink="http://www.w3.org/1999/xlink" enable-background="new 0 0 235.88 235.88">
  <path d="m235.124,52.357c-5.73-33.544-40.746-47.856-117.084-47.856h-0.186c-76.337,2.66454e-15-111.352,14.312-117.084,47.856-3.34,19.557 4.818,30.647 12.25,36.507l.546,.43c3.909,3.063 6.269,4.913 6.269,14.646v100.051c0,15.103 12.286,27.389 27.389,27.389h141.447c15.103,0 27.39-12.286 27.39-27.389v-100.426c0-9.834 2.206-11.389 5.26-13.541 6.745-4.755 17.509-15.971 13.803-37.667zm-167.28,117.585c-9.872,0-17.875-8.003-17.875-17.875s8.003-17.875 17.875-17.875c9.872,0 17.875,8.003 17.875,17.875s-8.003,17.875-17.875,17.875zm28.712-48.997c-5.985,0-10.837-4.852-10.837-10.837 0-5.985 4.852-10.837 10.837-10.837s10.837,4.852 10.837,10.837c0,5.985-4.852,10.837-10.837,10.837zm29.51,52.967c-6.338,0-11.476-5.138-11.476-11.476s5.138-11.476 11.476-11.476c6.338,0 11.476,5.138 11.476,11.476s-5.138,11.476-11.476,11.476z"/>
</svg>
