<?xml version="1.0" encoding="iso-8859-1"?>
<!-- Generator: Adobe Illustrator 18.0.0, SVG Export Plug-In . SVG Version: 6.00 Build 0)  -->
<!DOCTYPE svg PUBLIC "-//W3C//DTD SVG 1.1//EN" "http://www.w3.org/Graphics/SVG/1.1/DTD/svg11.dtd">
<svg version="1.1" xmlns="http://www.w3.org/2000/svg" xmlns:xlink="http://www.w3.org/1999/xlink" x="0px" y="0px"
	 viewBox="0 0 57.71 57.71" style="enable-background:new 0 0 57.71 57.71;" xml:space="preserve">
<path d="M57.147,20.971c-0.351-1.575-1.438-2.805-3.232-3.657c-0.269-0.211-0.683-0.411-1.288-0.411
	c-0.563,0-1.444,0.149-3.114,1.059c0.769-1.268,1.504-2.542,2.178-3.825c1.006-1.912,1.345-4.972,0.047-7.119
	c-0.613-1.015-1.843-2.224-4.225-2.224l-0.125,0.001c-2.574,0.047-5.449,1.66-8.167,3.594C39.323,8.2,39.43,8.01,39.53,7.82
	c0.836-1.591,1.115-4.14,0.032-5.934C38.827,0.67,37.558,0,35.989,0l-0.104,0.001c-3.206,0.058-6.934,3.025-9.928,5.41
	c-0.776,0.618-1.51,1.201-2.116,1.635c-5.514,3.942-10.651,8.995-14.858,14.611c-0.451,0.604-1.095,1.36-1.84,2.236
	c-3.157,3.713-7.48,8.798-6.579,12.846C0.914,38.314,2,39.544,3.795,40.396c0.269,0.211,0.683,0.411,1.288,0.411
	c0.442,0,1.082-0.093,2.143-0.572c-2.331,3.312-4.062,6.813-3.395,9.811c0.42,1.884,1.731,3.357,3.9,4.382
	c0.299,0.24,0.771,0.475,1.471,0.475c1.868,0,5.124-1.911,8.797-4.61c-0.685,1.594-0.85,3.877,0.147,5.53
	c0.735,1.217,2.005,1.888,3.574,1.888l0.104-0.001c3.206-0.058,6.934-3.025,9.928-5.41c0.776-0.618,1.51-1.201,2.116-1.635
	c5.512-3.94,10.649-8.993,14.858-14.611c0.451-0.604,1.095-1.36,1.84-2.236C53.725,30.104,58.048,25.019,57.147,20.971z
	 M38.839,12.968c1.447-1.443,3.796-1.441,5.239,0c0.645,0.645,1.766,0.645,2.41,0c0.391-0.391,1.023-0.391,1.414,0
	c0.391,0.39,0.391,1.023,0,1.414c-0.699,0.7-1.63,1.086-2.619,1.086s-1.92-0.386-2.619-1.086c-0.665-0.666-1.748-0.664-2.411,0
	c-0.391,0.391-1.023,0.391-1.414,0S38.449,13.357,38.839,12.968z M38.724,19.088c0.848,0.849,2.323,0.85,3.175,0
	c0.391-0.391,1.023-0.391,1.414,0c0.391,0.39,0.391,1.023,0,1.414c-0.802,0.803-1.867,1.244-3.001,1.244s-2.199-0.441-3.002-1.244
	c-0.875-0.875-2.301-0.875-3.176,0c-0.391,0.391-1.023,0.391-1.414,0s-0.391-1.023,0-1.414
	C34.375,17.432,37.07,17.432,38.724,19.088z M31.19,26.621c-0.875-0.875-2.301-0.875-3.176,0c-0.391,0.391-1.023,0.391-1.414,0
	s-0.391-1.023,0-1.414c1.654-1.656,4.35-1.656,6.004,0c0.875,0.875,2.301,0.875,3.176,0c0.391-0.391,1.023-0.391,1.414,0
	s0.391,1.023,0,1.414c-0.827,0.828-1.915,1.241-3.002,1.241S32.017,27.449,31.19,26.621z M31.075,32.741
	c-0.827,0.828-1.915,1.241-3.002,1.241s-2.175-0.413-3.002-1.241c-0.875-0.875-2.301-0.875-3.176,0
	c-0.391,0.391-1.023,0.391-1.414,0s-0.391-1.023,0-1.414c1.654-1.656,4.35-1.656,6.004,0c0.875,0.875,2.301,0.875,3.176,0
	c0.391-0.391,1.023-0.391,1.414,0S31.465,32.351,31.075,32.741z M23.453,10.784c1.506-1.506,3.957-1.506,5.463,0
	c0.727,0.727,1.908,0.727,2.635,0c0.391-0.391,1.023-0.391,1.414,0s0.391,1.023,0,1.414c-0.753,0.753-1.742,1.13-2.731,1.13
	s-1.979-0.377-2.731-1.13c-0.727-0.727-1.908-0.727-2.635,0c-0.391,0.391-1.023,0.391-1.414,0S23.062,11.175,23.453,10.784z
	 M14.798,17.984c1.506-1.506,3.957-1.506,5.463,0c0.727,0.725,1.908,0.725,2.635,0c0.391-0.391,1.023-0.391,1.414,0
	s0.391,1.024,0,1.414c-0.753,0.753-1.742,1.129-2.731,1.129s-1.979-0.376-2.731-1.129c-0.728-0.728-1.909-0.726-2.635,0
	c-0.391,0.391-1.023,0.391-1.414,0S14.408,18.375,14.798,17.984z M7.226,28.053c-0.391-0.39-0.391-1.023,0-1.414
	c1.46-1.462,4.004-1.46,5.462,0c0.728,0.728,1.909,0.726,2.635,0c0.391-0.391,1.023-0.391,1.414,0s0.391,1.023,0,1.414
	c-0.753,0.753-1.742,1.129-2.731,1.129s-1.978-0.376-2.731-1.129c-0.704-0.704-1.928-0.706-2.634,0
	C8.25,28.443,7.617,28.443,7.226,28.053z M18.835,44.98c-0.828,0.827-1.915,1.241-3.002,1.241s-2.174-0.414-3.002-1.241
	c-0.875-0.875-2.301-0.875-3.176,0c-0.391,0.391-1.023,0.391-1.414,0s-0.391-1.023,0-1.414c1.654-1.656,4.35-1.656,6.004,0
	c0.875,0.875,2.301,0.875,3.176,0c0.391-0.391,1.023-0.391,1.414,0S19.226,44.591,18.835,44.98z M21.721,56.71v-0.006h0
	L21.721,56.71z M24.955,38.86c-0.827,0.828-1.915,1.241-3.002,1.241s-2.175-0.413-3.002-1.241c-0.85-0.85-2.326-0.85-3.175,0
	c-0.391,0.391-1.023,0.391-1.414,0c-0.391-0.39-0.391-1.023,0-1.414c0.802-0.803,1.867-1.244,3.002-1.244
	c1.134,0,2.199,0.441,3.001,1.244c0.875,0.875,2.301,0.875,3.176,0c0.391-0.391,1.023-0.391,1.414,0S25.345,38.47,24.955,38.86z
	 M35.117,46.432c-0.753,0.753-1.742,1.13-2.731,1.13s-1.979-0.377-2.731-1.13c-0.727-0.725-1.908-0.725-2.635,0
	c-0.391,0.391-1.023,0.391-1.414,0s-0.391-1.024,0-1.414c1.506-1.506,3.957-1.506,5.463,0c0.728,0.727,1.909,0.727,2.635,0
	c0.391-0.391,1.023-0.391,1.414,0S35.507,46.041,35.117,46.432z M42.69,37.777c-0.73,0.73-1.7,1.133-2.731,1.133
	c-1.032,0-2.002-0.402-2.731-1.133c-0.727-0.728-1.908-0.726-2.635,0c-0.391,0.391-1.023,0.391-1.414,0s-0.391-1.023,0-1.414
	c1.506-1.506,3.955-1.506,5.463,0c0.705,0.705,1.93,0.705,2.635,0c0.391-0.391,1.023-0.391,1.414,0S43.081,37.387,42.69,37.777z
	 M51.344,30.578c-0.73,0.73-1.7,1.133-2.731,1.133c-1.032,0-2.002-0.402-2.731-1.133c-0.705-0.705-1.93-0.705-2.635,0
	c-0.391,0.391-1.023,0.391-1.414,0c-0.391-0.39-0.391-1.023,0-1.414c1.458-1.46,4.001-1.462,5.463,0c0.705,0.705,1.93,0.705,2.635,0
	c0.391-0.391,1.023-0.391,1.414,0S51.735,30.188,51.344,30.578z"/>
<g>
</g>
<g>
</g>
<g>
</g>
<g>
</g>
<g>
</g>
<g>
</g>
<g>
</g>
<g>
</g>
<g>
</g>
<g>
</g>
<g>
</g>
<g>
</g>
<g>
</g>
<g>
</g>
<g>
</g>
</svg>
