<?xml version='1.0' encoding='iso-8859-1'?>
<svg version="1.1" xmlns="http://www.w3.org/2000/svg" viewBox="0 0 250 250" xmlns:xlink="http://www.w3.org/1999/xlink" enable-background="new 0 0 250 250">
  <path d="m206.137,88.874l-26.937-13.178 28.859,28.86-14.142,14.142-46.593-46.592-1.759-.187c-7.732-0.815-15.554-1.165-23.19-1.068l-11.838,.164 33.541,33.541-14.142,14.142-43.95-43.952-2.672,.586c-5.931,1.299-11.802,2.884-17.449,4.709l-7.777,2.514 22.002,22.001-14.142,14.143-27.239-27.239-3.32,1.91c-22.491,12.941-35.389,28.701-35.389,43.241 0,18.328 12.757,30.247 38.999,36.438 21.512,5.075 49.938,6.115 86.001,6.115 36.063,0 64.489-1.04 86.001-6.115 26.242-6.19 38.999-18.109 38.999-36.438 0-16.21-16.808-34.502-43.863-47.737z"/>
</svg>
