<?xml version="1.0" encoding="iso-8859-1"?>
<!-- Generator: Adobe Illustrator 19.0.0, SVG Export Plug-In . SVG Version: 6.00 Build 0)  -->
<svg version="1.1" xmlns="http://www.w3.org/2000/svg" xmlns:xlink="http://www.w3.org/1999/xlink" x="0px" y="0px"
	 viewBox="0 0 330 330" style="enable-background:new 0 0 330 330;" xml:space="preserve">
<g>
	<path d="M315,120H30V90h135c8.284,0,15-6.716,15-15V15c0-8.284-6.716-15-15-15H15C6.716,0,0,6.716,0,15v60v60v60v60
		v60c0,8.284,6.716,15,15,15h225c8.284,0,15-6.716,15-15v-60c0-8.284-6.716-15-15-15H30v-30h285c8.284,0,15-6.716,15-15v-60
		C330,126.716,323.284,120,315,120z"/>
</g>
<g>
</g>
<g>
</g>
<g>
</g>
<g>
</g>
<g>
</g>
<g>
</g>
<g>
</g>
<g>
</g>
<g>
</g>
<g>
</g>
<g>
</g>
<g>
</g>
<g>
</g>
<g>
</g>
<g>
</g>
</svg>
