<?xml version="1.0" encoding="iso-8859-1"?>
<!-- Generator: Adobe Illustrator 18.0.0, SVG Export Plug-In . SVG Version: 6.00 Build 0)  -->
<!DOCTYPE svg PUBLIC "-//W3C//DTD SVG 1.1//EN" "http://www.w3.org/Graphics/SVG/1.1/DTD/svg11.dtd">
<svg version="1.1" xmlns="http://www.w3.org/2000/svg" xmlns:xlink="http://www.w3.org/1999/xlink" x="0px" y="0px"
	 viewBox="0 0 42 42" style="enable-background:new 0 0 42 42;" xml:space="preserve">
<g>
	<path d="M38.996,3.083C38.999,3.05,39,3.02,39,3c0-1.088-0.959-1.83-5.862-2.407C29.889,0.211,25.579,0,21,0
		S12.111,0.211,8.862,0.593C3.959,1.17,3,1.912,3,3c0,0.02,0.001,0.05,0.004,0.083h0l0.005,0.066C3.011,3.169,3.011,3.19,3.014,3.21
		l0.907,10.873l2.102,1.486C6.863,16.2,12.501,17,21.082,17c1.231,0,2.383-0.017,3.471-0.045l0.197-0.184
		c1.1-1.028,2.947-1.007,4.059-0.012c4.172-0.284,6.631-0.765,7.114-1.13l2.165-1.642L38.986,3.21
		c0.003-0.025,0.004-0.052,0.006-0.077C38.994,3.116,38.995,3.099,38.996,3.083z M21,2c7.015,0,12.196,0.491,14.668,1
		C33.196,3.509,28.015,4,21,4S8.804,3.509,6.332,3C8.804,2.491,13.985,2,21,2z"/>
	<path d="M30.59,18.628l1.604,1.717c0.545,0.584,0.831,1.347,0.804,2.149c-0.027,0.802-0.364,1.545-0.948,2.09l-3.43,3.205
		c-0.556,0.52-1.283,0.806-2.047,0.806c-0.83,0-1.629-0.346-2.192-0.949l-3.205-3.431c-1.129-1.208-1.064-3.11,0.144-4.239
		l1.054-0.985C21.75,18.999,21.293,19,21.082,19c-0.534,0-2.609-0.007-5.117-0.107c0.008,0.008,0.017,0.013,0.025,0.021l3.205,3.43
		c0.546,0.584,0.831,1.348,0.804,2.149c-0.027,0.803-0.364,1.546-0.948,2.091l-3.43,3.204c-0.555,0.52-1.282,0.807-2.047,0.807
		c-0.83,0-1.629-0.347-2.193-0.95l-3.205-3.43c-1.13-1.209-1.065-3.111,0.144-4.24l3.43-3.204c0.048-0.045,0.105-0.076,0.155-0.116
		c-3.187-0.26-6.187-0.714-7.112-1.511L4.138,16.68L6,39c0,1.056,0.915,1.788,5.591,2.405C14.409,41.777,17.927,42,21,42
		s6.591-0.223,9.409-0.595c4.676-0.617,5.591-1.35,5.587-2.322l1.868-22.42l-0.674,0.511C36.368,17.926,33.607,18.367,30.59,18.628z
		 M27.68,35.584l-3.43,3.205c-0.556,0.52-1.282,0.806-2.046,0.806c-0.83,0-1.629-0.347-2.193-0.95l-3.205-3.43
		c-0.546-0.584-0.831-1.347-0.804-2.149c0.027-0.802,0.364-1.545,0.948-2.09l3.43-3.205c1.159-1.084,3.157-1.016,4.24,0.144
		l3.205,3.43C28.954,32.553,28.889,34.455,27.68,35.584z"/>
</g>
<g>
</g>
<g>
</g>
<g>
</g>
<g>
</g>
<g>
</g>
<g>
</g>
<g>
</g>
<g>
</g>
<g>
</g>
<g>
</g>
<g>
</g>
<g>
</g>
<g>
</g>
<g>
</g>
<g>
</g>
</svg>
