<?xml version="1.0" encoding="iso-8859-1"?>
<!-- Generator: Adobe Illustrator 19.0.0, SVG Export Plug-In . SVG Version: 6.00 Build 0)  -->
<svg version="1.1" xmlns="http://www.w3.org/2000/svg" xmlns:xlink="http://www.w3.org/1999/xlink" x="0px" y="0px"
	 viewBox="0 0 120 120" style="enable-background:new 0 0 120 120;" xml:space="preserve">
<g>
	<g>
		<path style="fill-rule:evenodd;clip-rule:evenodd;" d="M119.951,62.504c-0.161-1.428-0.627-2.553-1.192-3.576
			c-0.413-0.382-0.698-0.892-0.954-1.432c-0.478-0.396-1.108-0.641-1.192-1.431c0.722-0.629,0.411-2.292,0.477-3.576
			c-0.412-1.974-1.69-3.08-2.385-4.771c0.863-1.282,1.936-2.355,1.908-4.529c-0.203-2.42-1.896-3.351-2.861-5.008
			c0.698-1.13,0.923-2.732,0.954-4.531c0.128-0.922-0.425-1.164-0.238-2.146c-0.265-1.007-0.859-1.685-1.192-2.621
			c0.012-1.125-0.418-1.807-0.477-2.863c-1.685-3.083-3.705-5.833-6.677-7.63c-1.671-0.419-2.124,0.794-2.861,0.239
			c-9.311-4.759-20.661-7.477-34.576-7.631c-0.305,0.013-0.33,0.305-0.716,0.238c-10.214-0.358-18.117,1.595-25.276,4.292
			c-1.622,0.841-3.609,1.319-5.008,2.384c-1.78,0.684-3.059,1.869-4.769,2.624c-1.209,1.255-2.806,2.123-4.054,3.338
			c-0.59,0.604-0.938,1.447-1.67,1.907c-0.276,0.996-0.764,1.779-1.192,2.624c0.018,1.571-0.112,3.291,0.238,4.53
			c0.212,0.742,0.797,1.11,0.954,1.908c0.615,0.34,1.349,0.558,1.431,1.43c-0.819,1.646-0.358,4.57-0.477,6.916
			c0.451,2.013,0.603,4.325,0.715,6.676c0.149,2.395,1.274,3.813,1.192,6.44c-0.71,2.627-2.367,4.31-4.53,5.483
			c-4.531,1.907-11.536,1.341-16.692,2.624c-1.615,0.769-3.433,1.335-5.008,2.146c-1.506,0.956-2.68,2.247-3.576,3.814
			c-0.322,1.627-0.41,3.929,0.238,5.246c1.193,1.35,3.395,1.691,5.246,2.385c0.757,0.515,2.033,0.51,2.623,1.191
			c0.484,0.789,0.892,1.652,0.716,3.101c-0.265,1.087-1.154,1.549-1.908,2.146c-1.247,0.183-1.796,1.065-2.862,1.431
			c-0.331,1.18-1.569,1.451-1.669,2.861c-0.773,0.817-1.022,2.156-0.954,3.815c0.562,1.743,1.717,2.892,3.338,3.577
			c1.231,1.153,3.3,1.469,5.246,1.907h5.008c7.723-1.577,11.353-7.246,18.361-9.538c2.682-0.804,5.794-0.344,8.346,0.238
			c2.799,2.368,6.231,4.101,9.776,5.723c0.793,0.4,1.953,0.432,2.861,0.715c3.58,0.32,5.881-0.637,8.346-1.431
			c1.516-1.026,3.01-2.076,4.292-3.338c0.493-1.176,1.377-1.962,1.669-3.339c0.419-1.449,0.312-4.015,0-5.484
			c1.647,0.658,4.06,0.551,5.961,0.955c2.108,0.197,3.709,0.9,6.2,0.714c0.564,0.549,2.14,0.085,3.1,0.238
			c3.447-0.05,7.157,0.163,10.253-0.238c4.315-0.294,8.324-0.896,11.923-1.907c1.686-0.619,3.521-1.089,5.008-1.908
			c1.665-0.718,3.006-1.762,4.769-2.384c1.58-1.68,2.956-3.561,3.339-6.437c0.272-1.784-0.542-2.48-0.716-3.815
			C119.459,65.67,120.199,64.581,119.951,62.504z M109.936,34.366c0.174-0.224,0.434-0.36,0.715-0.478
			c0.193,0.046,0.237,0.24,0.477,0.239c-0.155,1.911-0.826,3.307-1.668,4.531c-1.587,0.877-3.36,1.567-4.77,2.622
			c-1.788,0.677-3.113,1.815-5.246,2.145c-3.73,1.199-7.938,1.919-12.162,2.624c-8.37,1.406-18.445,1.107-27.899,1.43
			c-1.575-0.072-2.987,0.774-4.292,0.238c-0.642-0.638,0.304-0.906,0.477-1.43c0.402-0.393,1.071-0.518,1.431-0.954
			c1.145-0.445,2.261-0.919,3.577-1.192c5.316,0.135,11.542,0.639,16.453-0.238c3.717-0.336,6.925-1.182,10.492-1.669
			c0.564-0.47,1.794-0.271,2.384-0.716c1.032,0,1.513-0.554,2.623-0.476c0.562-0.472,1.505-0.563,2.384-0.716
			c0.766-0.268,1.414-0.652,2.384-0.717c3.133-0.92,5.739-2.368,9.062-3.099C107.786,36.033,108.518,34.855,109.936,34.366z
			 M65.583,33.889c0.277,0.039,0.424-0.052,0.477-0.238c0.501,0.215,1.06,0.371,1.431,0.716c-0.039,0.277,0.052,0.425,0.238,0.478
			c0.122,3.301-2.189,4.168-4.53,5.007h-2.146c-1.671-0.475-4.042-0.249-4.531-1.907v-0.479c0.47-2.431,3.62-0.887,5.961-1.191
			c0.192-0.126,0.387-0.248,0.716-0.238C64.403,35.73,64.536,34.352,65.583,33.889z M65.344,25.067
			c0.098-0.301,0.308-0.488,0.716-0.478C65.963,24.889,65.753,25.077,65.344,25.067C65.369,25.354,64.998,25.213,65.344,25.067z
			 M63.675,40.089c0.048,0.672-1.782-0.065-0.477,0H63.675z M71.783,22.205c1.177-0.333,2.788-0.233,4.292-0.238
			c1.646,0.898,3.349,1.738,3.815,3.815c-0.028,0.926-0.702,1.205-1.192,1.67c-2.579,0.512-2.524-1.609-4.054-2.146
			c-1.787-0.153-3.467,1.096-4.769,0c0.039-0.276-0.053-0.424-0.238-0.477C69.389,22.99,70.663,22.675,71.783,22.205z
			 M29.815,32.935c-1.644-3.958,2.01-5.865,3.815-7.868c1.551-0.596,2.514-1.778,4.054-2.385c1.19-0.878,2.731-1.403,4.054-2.146
			c5.944-2.482,12.71-4.142,20.984-4.293c0.385,0.068,0.411-0.225,0.715-0.238h10.015c4.369,0.401,8.947,0.592,13.115,1.193
			c2.042,0.342,4.066,0.702,6.2,0.953c0.783,0.409,1.754,0.63,2.862,0.716c0.781,0.41,1.587,0.798,2.623,0.953
			c0.576,0.809-1.234,0.881-1.192,1.907c0.069,1.044,0.417,1.809,1.669,1.67c0.763-0.032,1.049-0.54,0.954-1.431
			c0.418-0.844-0.801-1.228-0.238-1.431c3.292,0.999,4.739,3.845,8.107,4.769c0.7,1.526,1.692,2.759,1.431,5.246
			c-2.163,1.971-5.146,3.121-8.346,4.055c-1.34,0.726-2.97,1.162-4.531,1.668c-0.815,0.219-1.709,0.359-2.385,0.717
			c-0.751,0.281-1.798,0.268-2.384,0.714c-6.718,1.469-13.552,2.822-21.222,3.34c-0.519-0.548,0.635-0.768,0.954-1.193
			c0.294-0.501,0.661-0.93,0.954-1.431c0.338-1.013,0.447-2.255,0.716-3.338c3.872-1.851,10.506-0.94,12.638-4.531
			c0.763-1.921,0.572-5.199-0.238-6.916c-2.046-3.596-6.382-4.903-11.922-5.006c-4.759,0.486-7.786,2.707-11.446,4.292
			c-1.62,0.188-2.594-0.268-3.577-0.716h-5.008c-5.436,0.287-10.032,1.414-13.83,3.338c-0.774,0.657-1.802,1.059-2.623,1.67
			c-0.948,0.482-1.569,1.292-2.623,1.67c-0.471,0.958-1.708,1.152-2.146,2.146C30.97,31.388,30.885,32.654,29.815,32.935z
			 M7.162,75.143c-0.671-0.104-1.503-1.003-1.669-1.67c-0.126-0.503-0.453-1.908,0-3.1c1.373-1.614,3.268-3.824,6.438-2.862
			c0.926,2.459-1.555,3.301-2.623,4.531c-0.377,0.698,0.51,1.356,0,2.385C8.689,74.943,8.025,75.275,7.162,75.143z M18.608,92.072
			c-0.112,0.056-0.393,0.452-0.477,0.477c-1.163,0.352-2.937,0.776-4.292,1.191c-3.688,0.11-6.915-0.238-7.392-3.338
			c0.33-0.386,0.676-0.755,0.954-1.193c1.574-0.302,1.772,0.771,2.861,0.955h2.862c2.256-0.446,4.03-1.376,5.961-2.146
			c0.771,0.103,2.062-0.314,2.146,0.478C21.93,90.613,20.024,91.37,18.608,92.072z M26,88.734c-0.148-0.646-0.996-0.594-0.954-1.432
			c0.156-2.135,4.75-3.047,5.961-1.191C31.107,88.754,28.173,88.364,26,88.734z M34.584,59.166
			c-0.529,2.492-1.264,4.776-2.861,6.199c-0.268,1.56-0.369,3.287-2.384,3.101c-1.194-1.3,0.333-3.08,0.477-4.531
			c0.63-1.356,1.241-2.732,1.669-4.292v-3.815c-0.247-1.024-0.432-2.111-0.715-3.1c0.326-0.946,0.325-2.22,1.669-2.146
			c0.777,0.733,0.766,2.254,1.192,3.338c0.584,0.846,0.636,2.226,0.954,3.338V59.166z M45.553,44.859
			c-1.128-0.303-2.084-0.778-3.338-0.955c-0.873-0.638-2.33-0.69-3.1-1.431c-1.207-0.224-1.799-1.062-2.861-1.43
			c-1-1.226-2.441-2.011-2.861-3.816c0.232-0.007,0.185-0.292,0.238-0.476c0.192-0.126,0.387-0.249,0.715-0.238
			c1.354,0.093,2.655,0.547,3.577,1.431c0.382,0.366,1.516,0.605,2.384,0.954c0.101,0.041-0.011,0.225,0.238,0.237
			c0.419,0.022,0.853,0.561,1.67,0.477c1.006,0.823,2.719,0.937,4.054,1.433c1.027,0.72,2.572,0.925,2.623,2.622
			C48.773,45.058,47.078,44.873,45.553,44.859z M60.099,91.596c-0.377,0.019-0.91-0.115-0.954,0.238H55.33
			c-1.522-0.863-3.935-0.834-3.577-3.576c1.248-1.488,2.773,0.192,4.531,0.238c0.827,0.19,0.917-0.355,1.669-0.238
			c2.379-1.039,3.886-2.95,5.246-5.009c0.933-0.138,1.384,0.206,1.907,0.478C66.14,88.133,62.516,89.854,60.099,91.596z
			 M114.705,73.949c-1.2,0.629-2.076,1.58-3.1,2.386c-9.06,2.544-19.7,3.509-31.476,3.337c-3.104-0.471-6.189-0.964-9.062-1.668
			c-1.094,0.06-0.572-1.494-1.192-1.908c-1.283-0.17-0.489,1.737-1.908,1.431c-1.484-0.025-1.419-1.601-2.146-2.384
			c-0.331-0.386-0.676-0.756-0.954-1.193c-0.264-0.16-1.237-0.791-0.715-0.953c2.261,0.521,4.649,0.915,6.677,1.67
			c1.7-0.031,3.373-0.035,4.769,0.237c5.682-0.398,12.465,0.436,17.884-0.715c8.438-0.067,15.714-1.296,21.461-4.054
			c0.059-0.26,0.474-0.162,0.477-0.478c0.277-0.039,0.424,0.053,0.477,0.239C115.964,71.711,115.06,72.557,114.705,73.949z
			 M114.705,67.272c-6.74,2.163-14.582,3.224-23.13,3.578H75.36c-4.495-0.659-8.587,0.069-12.399-0.716
			c-1.28-0.246-1.265,0.801-2.146,0.953c-2.263-0.837-4.498-1.702-6.915-2.384c-0.234-1.903,1.665-1.675,1.431-3.577
			c-0.122-1.627-1.145-2.353-2.384-2.861c0.031-0.922,0.967-0.941,1.192-1.669c0.453-0.501,0.686-1.223,0.954-1.907
			c0.343-3.604-0.988-5.531-0.954-8.824c1.367-0.174,1.757,0.628,2.861,0.717c3.362,0.372,7.121,0.35,10.492,0.715
			c8.822,0.158,16.917-0.41,23.845-2.146c3.832-0.461,6.776-1.808,10.492-2.384c0.588-0.526,1.696-0.53,2.384-0.955
			c0.864-0.169,1.235-0.83,2.146-0.952c1.062-1.085,2.764-1.529,4.054-2.386c0.133-0.343,0.372-0.582,0.715-0.716
			c0.464-0.179,0.65,0.12,0.954,0.478c0.314,0.368,0.881,1.013,0.954,1.907c0.367,1.11,0.004,1.999-0.238,3.101
			c-2.267,1.151-5.904,0.931-8.346,1.907c-2.937,0.48-5.357,1.479-8.346,1.908c-1.088,0.66-2.833,0.664-4.054,1.191
			c-0.854,0.02-1.378,0.371-2.146,0.478c-0.637,0.157-1.49,0.1-1.908,0.477c-3.066,0.352-5.978,0.858-9.061,1.192
			c-5.728,0.312-12.058,0.023-17.646,0.478c-0.038-0.279-0.435-0.202-0.715-0.238c-1.974-0.173-4.586-1.57-5.246,0.714
			c0.005,1.506,1.422,1.599,2.861,1.67c0.106,0.688,1.802-0.213,1.908,0.477c0.571-0.144,1.088-0.342,1.908-0.238
			c2.662,0.358,5.486,0.555,8.107,0.954h9.062c6.199-0.478,11.619-1.735,17.168-2.862c0.348-0.525,1.56-0.188,1.908-0.714
			c0.736-0.059,1.348-0.243,1.907-0.478c1.278-0.393,2.818-0.52,3.815-1.191c2.865-0.474,4.955-1.724,7.63-2.385
			c1.142,1.481,1.864,3.382,2.146,5.723c-1.465-0.115-2.463,0.238-3.577,0.477c-11.265,4.155-24.578,6.263-39.345,6.914
			c-2.325-0.376-4.709-0.694-7.154-0.952c-2.596,0.252-5.377-0.979-6.438,0.952c-0.09,1.442,1.35,1.353,2.146,1.908
			c0.836,0.436,1.956,0.588,2.862,0.955h4.054c0.827-0.192,0.917,0.354,1.669,0.238h10.254c6.677-0.637,13.421-1.205,19.315-2.623
			c3.227-0.431,5.946-1.367,8.823-2.146c1.254-0.574,2.827-0.829,3.815-1.669c1.54-0.21,2.095-1.403,3.339-1.908
			c-0.376,1.301,0.99,0.253,0.954,0.716c0.542,0.174,0.713,0.717,0.954,1.192c0.606,0.824,1.156,1.705,1.192,3.099
			C116.534,65.287,115.557,66.219,114.705,67.272z M55.568,20.297c0.491-0.305,1.209-0.38,1.192-1.191
			c0.128-1.836-2.821-2.21-3.1-0.477C53.774,19.707,54.344,20.328,55.568,20.297z M92.529,26.019
			c0.239-0.475,1.054-0.376,0.954-1.191c-0.191-1.08-0.807-1.736-2.146-1.668c-0.24,0.475-1.054,0.375-0.954,1.191
			C90.451,25.555,91.266,26.01,92.529,26.019z M97.298,29.358c1.387,1.151,4.765,0.626,5.008-1.431
			c-0.447-2.927-4.847-1.223-5.246,0.716C97.338,28.684,97.318,29.019,97.298,29.358z M93.483,33.412
			c-0.066-1.969-4.14-3.053-4.769-0.953C89.092,34.052,92.742,35.74,93.483,33.412z M32.676,95.648
			c-0.451,0.505-1.158,0.152-1.669,0.239c-0.009,0.002-0.087,0.2-0.239,0.239c-0.15,0.036-0.326-0.035-0.477,0
			c-1.332,0.299-2.654,0.826-3.577,1.43c-1.703,0.842-3.333,1.754-3.577,4.054v1.431c0.742,2.357,2.884,3.316,5.246,4.053
			c3.495-0.24,6.875-0.596,9.776-1.43c2.629-1.186,5.503-2.127,5.484-5.961C42.882,95.459,37.83,95.502,32.676,95.648z
			 M37.923,101.61c-1.292,0.02-1.983-0.561-3.339-0.478c-0.573-0.619-1.948-0.435-2.146-1.43c2.082-0.404,5.616-0.436,7.392,0.238
			C39.699,101.003,38.667,101.162,37.923,101.61z M56.999,102.565c-1.09,0.578-2.789,0.549-3.577,1.43
			c-1.221,0.528-2.191,1.306-1.907,3.338c0.186,0.053,0.277,0.2,0.238,0.478c0.884,0.945,2.81,0.846,4.292,1.192
			c3.409-0.326,6.603-0.867,7.393-3.816c-0.123-1.069-0.745-1.64-1.192-2.384C60.524,102.185,59.095,102.526,56.999,102.565z"/>
	</g>
</g>
<g>
</g>
<g>
</g>
<g>
</g>
<g>
</g>
<g>
</g>
<g>
</g>
<g>
</g>
<g>
</g>
<g>
</g>
<g>
</g>
<g>
</g>
<g>
</g>
<g>
</g>
<g>
</g>
<g>
</g>
</svg>
