<?xml version="1.0" encoding="iso-8859-1"?>
<!-- Generator: Adobe Illustrator 17.1.0, SVG Export Plug-In . SVG Version: 6.00 Build 0)  -->
<!DOCTYPE svg PUBLIC "-//W3C//DTD SVG 1.1//EN" "http://www.w3.org/Graphics/SVG/1.1/DTD/svg11.dtd">
<svg version="1.1" xmlns="http://www.w3.org/2000/svg" xmlns:xlink="http://www.w3.org/1999/xlink" x="0px" y="0px"
	 viewBox="0 0 373.055 373.055" style="enable-background:new 0 0 373.055 373.055;" xml:space="preserve">
<g>
	<path d="M294.528,185.739c0-39.817-32.394-72.211-72.211-72.211h-70.578c-39.817,0-72.211,32.394-72.211,72.211v0.577
		c0,39.817,32.394,72.211,72.211,72.211h70.578c39.817,0,72.211-32.394,72.211-72.211V185.739z"/>
	<path d="M71.448,227.647c-6.205-10.938-11.106-19.577-11.106-41.131c0-28.957,17.52-52.182,17.692-52.408l0.219-0.308
		c3.117-4.755,4.134-10.386,2.863-15.855c-1.271-5.469-4.667-10.075-9.561-12.969L29.277,79.978
		c-3.037-1.795-5.912-2.706-8.546-2.706c-3.038,0-5.689,1.228-7.466,3.458c-1.603,2.012-3.203,5.763-1.726,12.209l4.187,18.265
		c1.766,7.708,0.689,20.385-2.352,27.684L2.988,163.813c-3.936,9.447-3.99,24.266-0.123,33.742l10.604,25.971
		c2.863,7.014,3.013,19.361,0.323,26.442L2.454,279.771c-1.985,5.224-1.936,9.34,0.147,12.36c1.566,2.271,4.079,3.396,7.073,3.396
		c0,0,0.001,0,0.001,0c2.456,0,5.241-0.73,8.277-2.422L68.68,264.97c9.761-5.438,13.066-17.596,7.688-28.281
		C74.708,233.394,73.051,230.472,71.448,227.647z"/>
	<path d="M359.264,249.999c-2.69-7.08-2.54-19.443,0.321-26.457l10.604-25.98c3.867-9.476,3.813-24.299-0.123-33.745l-10.386-24.928
		c-3.041-7.299-4.118-19.977-2.352-27.684l4.187-18.266c1.478-6.446-0.123-10.198-1.726-12.209c-1.777-2.23-4.429-3.458-7.466-3.458
		c-2.634,0-5.51,0.911-8.547,2.706l-42.278,24.997c-4.895,2.894-8.29,7.5-9.561,12.969s-0.254,11.1,2.863,15.855l0.215,0.303
		c0.178,0.231,17.697,23.456,17.697,52.413c0,21.859-6.869,33.862-12.388,43.507c-1.338,2.337-2.601,4.544-3.664,6.718
		c-5.328,10.898-2.084,22.771,7.714,28.229l50.727,28.263c3.037,1.692,5.821,2.55,8.278,2.55c2.994,0,5.506-1.251,7.072-3.522
		c2.084-3.02,2.134-7.2,0.148-12.425L359.264,249.999z"/>
</g>
<g>
</g>
<g>
</g>
<g>
</g>
<g>
</g>
<g>
</g>
<g>
</g>
<g>
</g>
<g>
</g>
<g>
</g>
<g>
</g>
<g>
</g>
<g>
</g>
<g>
</g>
<g>
</g>
<g>
</g>
</svg>
