<?xml version="1.0" encoding="iso-8859-1"?>
<!-- Generator: Adobe Illustrator 19.0.0, SVG Export Plug-In . SVG Version: 6.00 Build 0)  -->
<svg version="1.1" xmlns="http://www.w3.org/2000/svg" xmlns:xlink="http://www.w3.org/1999/xlink" x="0px" y="0px"
	 viewBox="0 0 512 512" style="enable-background:new 0 0 512 512;" xml:space="preserve">
<g>
	<g>
		<g>
			<path d="M201.158,242.832c12.302,0,23.8-5.684,31.343-15.031c-7.543-9.347-19.04-15.031-31.343-15.031
				c-12.302,0-23.8,5.684-31.342,15.031C177.36,237.146,188.858,242.832,201.158,242.832z"/>
			<path d="M255.995,178.928c20.004-16.139,20.039-46.512,0-62.683C235.999,132.377,235.948,162.757,255.995,178.928z"/>
			<path d="M310.831,242.832c12.303,0,23.8-5.683,31.342-15.031c-7.54-9.348-19.039-15.031-31.342-15.031
				c-12.302,0-23.8,5.684-31.342,15.031C287.032,237.146,298.529,242.832,310.831,242.832z"/>
			<path d="M450.558,0H61.442C50.331,0,41.324,9.008,41.324,20.118v471.763c0,11.111,9.008,20.118,20.118,20.118h389.116
				c11.111,0,20.118-9.008,20.118-20.118V20.118C470.676,9.008,461.669,0,450.558,0z M128.05,219.387
				c13.104-28.463,41.8-46.854,73.11-46.854c1.204,0,2.402,0.036,3.597,0.09c-12.952-39.323,6.313-81.338,42.826-98.146
				c5.338-2.461,11.485-2.46,16.827,0c36.516,16.812,55.773,58.829,42.824,98.146c1.195-0.054,2.394-0.09,3.597-0.09
				c31.311,0,60.008,18.392,73.111,46.854c2.457,5.341,2.457,11.486,0,16.826c-18.564,40.325-66.936,58.551-107.829,38.919v16.341
				c0,11.111-9.008,20.118-20.118,20.118s-20.118-9.008-20.118-20.118v-16.341c-40.856,19.614-89.246,1.442-107.827-38.918
				C125.591,230.875,125.591,224.727,128.05,219.387z M376.709,446.453H135.29c-11.111,0-20.118-9.008-20.118-20.118
				s9.008-20.118,20.118-20.118h241.42c11.111,0,20.118,9.008,20.118,20.118S387.82,446.453,376.709,446.453z M376.709,387.44
				H135.29c-11.111,0-20.118-9.008-20.118-20.118s9.008-20.118,20.118-20.118h241.42c11.111,0,20.118,9.008,20.118,20.118
				S387.82,387.44,376.709,387.44z"/>
		</g>
	</g>
</g>
<g>
</g>
<g>
</g>
<g>
</g>
<g>
</g>
<g>
</g>
<g>
</g>
<g>
</g>
<g>
</g>
<g>
</g>
<g>
</g>
<g>
</g>
<g>
</g>
<g>
</g>
<g>
</g>
<g>
</g>
</svg>
