<?xml version="1.0" encoding="iso-8859-1"?>
<!-- Generator: Adobe Illustrator 19.0.0, SVG Export Plug-In . SVG Version: 6.00 Build 0)  -->
<svg version="1.1" xmlns="http://www.w3.org/2000/svg" xmlns:xlink="http://www.w3.org/1999/xlink" x="0px" y="0px"
	 viewBox="0 0 512.001 512.001" style="enable-background:new 0 0 512.001 512.001;" xml:space="preserve">
<g>
	<g>
		<path d="M257.765,398.906l-24.813-8.465c-39.351-13.424-65.791-50.38-65.791-91.959c0-0.576,0.059-1.139,0.153-1.69
			c-60.363,9.489-106.68,61.831-106.68,124.818c0,33.769,14.326,66.092,38.033,90.391h54.767
			c-20.184-25.691-31.134-57.186-31.134-90.366c0-5.591,4.533-10.125,10.125-10.125c5.591,0,10.125,4.533,10.125,10.125
			c0,33.758,13.146,65.495,37.015,89.365c0.317,0.317,0.601,0.656,0.867,1.003h61.245
			C234.403,473.431,240.277,433.548,257.765,398.906z"/>
	</g>
</g>
<g>
	<g>
		<path d="M359.51,301.069c-0.394,1.131-0.988,2.215-1.806,3.186l-61.956,73.591c-31.193,37.052-43.548,86.929-33.427,134.154
			h152.244c23.766-24.562,36.803-56.266,36.803-89.716C451.369,364.785,412.484,316.157,359.51,301.069z"/>
	</g>
</g>
<g>
	<g>
		<path d="M349.642,1.581C335.513,0.528,321.411,0,307.324,0c-51.539,0-102.687,7.055-152.578,21.075
			c-19.796,5.563-31.786,25.639-27.304,45.705l2.522,10.733c3.899,17.457,18.042,30.528,34.241,34.386V80.581
			c0-4.517,2.869-8.487,7.211-9.732l18.182-5.234c43.482-12.472,89.416-12.472,132.896,0l18.107,5.234
			c4.341,1.245,7.197,5.215,7.197,9.732v15.172c21.599-3.864,36.901-22.065,37.345-43.781l0.286-10.997
			C385.849,20.418,370.146,3.114,349.642,1.581z"/>
	</g>
</g>
<g>
	<g>
		<path d="M316.757,85.08c-39.827-11.426-81.747-11.426-121.576,0l-10.728,3.129v79.232c17.549-17.798,43.345-28.916,71.547-28.916
			s53.998,11.118,71.547,28.916V88.209L316.757,85.08z"/>
	</g>
</g>
<g>
	<g>
		<path d="M256.001,158.775c-43.662,0-79.183,32.87-79.183,73.271c0,40.401,35.521,73.271,79.183,73.271s79.183-32.87,79.183-73.271
			C335.184,191.644,299.663,158.775,256.001,158.775z"/>
	</g>
</g>
<g>
	<g>
		<path d="M328.169,296.278c-9.766,9.701-21.704,17.437-35.086,22.516c-11.468,4.352-23.976,6.773-37.082,6.773
			c-10.214,0-20.071-1.459-29.352-4.162c-14.861-4.327-28.225-11.866-39.216-21.727c0.501,32.424,21.284,61.102,52.056,71.599
			l28.638,9.769c3.712-5.613,7.754-11.041,12.132-16.241l57.198-67.94C334.392,296.559,331.294,296.362,328.169,296.278z"/>
	</g>
</g>
<g>
</g>
<g>
</g>
<g>
</g>
<g>
</g>
<g>
</g>
<g>
</g>
<g>
</g>
<g>
</g>
<g>
</g>
<g>
</g>
<g>
</g>
<g>
</g>
<g>
</g>
<g>
</g>
<g>
</g>
</svg>
