<svg width="36" height="30.000000000000004" xmlns="http://www.w3.org/2000/svg">

 <g>
  <title>background</title>
  <rect fill="none" height="402" width="582" y="-1" x="-1"/>
 </g>
 <g>
  <title>Layer 1</title>
  <polygon points="14,30 22,25 22,17 35.999,0 17.988,0 0,0 14,17 " fill="#5f6361"/>

  <g stroke="null">
   <g transform="matrix(-0.68009969534514,0,0,0.6967995272235128,56.48047366793359,-13.568687349971796) " fill-rule="evenodd" fill="none">
    <g stroke="null" fill="#5f6361">
     <path fill="#d9534f" stroke="null" d="m40.573948,56.829197c-4.418278,0 -8,-3.581722 -8,-8c0,-4.418278 3.581722,-8 8,-8c4.418278,0 8,3.581722 8,8c0,4.418278 -3.581722,8 -8,8zm-4,-9l0,2l8,0l0,-2l-8,0zm0,0"/>
    </g>
   </g>
  </g>
 </g>
</svg>