<svg viewBox="0 0 506.692 506.692"  xmlns="http://www.w3.org/2000/svg">

 <g>
  <title>background</title>
  <rect fill="none" height="402" width="582" y="-1" x="-1"/>
 </g>
 <g>
  <title>Layer 1</title>
  <g>
   <g stroke="null" transform="rotate(89.82161712646484 249.86584472656244,348.2630615234375) ">
    <g stroke="null">
     <path stroke="null" d="m363.090506,465.476316c-2.146134,-11.146927 -7.574924,-24.826525 -11.631364,-32.967454c-3.926686,-7.881185 -6.775097,-12.896234 -12.572783,-18.809017c-6.18079,-6.303432 -15.379995,-9.972913 -22.126678,-13.977925c-7.192295,-4.269578 -14.618051,-6.798116 -19.711567,-11.006376c-5.390906,-4.453534 -7.971287,-7.869472 -12.892431,-14.778514c-4.618545,-6.483944 -10.723093,-19.12319 -16.462059,-25.655362c-0.02794,-0.031693 -0.058247,-0.062697 -0.087133,-0.09439c8.287619,-23.036568 20.957954,-61.205094 31.91356,-95.490557c5.780166,-18.08835 11.037057,-34.945501 14.827834,-47.604039c1.895625,-6.328924 3.420934,-11.605095 4.484056,-15.545343c0.531324,-1.96978 0.937631,-3.600583 1.243072,-4.973711c0.152957,-0.686908 0.291234,-1.284249 0.399677,-1.980803c0.10797,-0.696554 0.431405,-1.03484 0.089028,-3.595761c-0.345692,-2.576766 -1.796653,-4.771152 -3.551634,-5.382962c-1.754981,-0.611121 -3.728742,0.361023 -4.839219,2.430704c-20.193642,37.569807 -35.995571,71.802219 -47.295923,96.605319c-0.006156,0 -0.023678,0 -0.02936,0c-4.452802,10.334625 -9.804403,22.470231 -14.976056,34.55623c-5.171652,-12.085999 -10.537461,-24.221605 -14.990736,-34.55623c-0.006156,0 -0.008997,0 -0.01468,0c-11.300351,-24.8031 -27.117434,-59.035512 -47.310603,-96.605319c-0.87607,-1.623225 -2.281096,-2.611904 -3.699382,-2.625684c-2.185912,-0.028248 -4.267643,2.445861 -4.690998,5.566229c-0.342377,2.560231 -0.019416,2.904719 0.089028,3.601272s0.24672,1.29734 0.399677,1.983559c0.305441,1.373127 0.711747,3.005309 1.243072,4.975088c1.062175,3.939559 2.589378,9.216419 4.484056,15.546032c3.788883,12.657849 9.03583,29.516378 14.813154,47.604039c10.953238,34.290975 23.624047,72.470524 31.912613,95.509159c-0.023204,0.025492 -0.047355,0.050984 -0.070086,0.076476c-5.738493,6.532172 -11.843041,19.171418 -16.462059,25.656051c-4.921144,6.909041 -7.501524,10.324979 -12.892431,14.778514c-5.093516,4.20757 -12.519272,6.736798 -19.711567,11.006376c-6.746683,4.005012 -15.945888,7.673804 -22.126678,13.977925c-5.797687,5.912783 -8.646097,10.927832 -12.572783,18.809017c-4.054545,8.136795 -9.502278,21.815704 -11.649359,32.967454c-2.071313,10.758345 -2.578486,21.061277 -0.372685,31.055548c2.211957,10.023208 6.743369,17.375261 12.270658,21.728205c5.611581,4.419775 12.174053,5.262391 18.042299,3.152061c5.66604,-2.037299 10.703677,-5.929319 15.591672,-12.478715c5.163128,-6.918687 9.567154,-18.643663 12.785881,-26.870025c3.41241,-8.721735 4.338676,-15.826445 6.659077,-24.364223c2.472411,-9.096537 4.966131,-21.26728 7.760557,-28.652403c2.963483,-7.832957 5.684982,-13.543182 9.056666,-18.137267c1.445278,-1.969091 3.246667,-3.134836 5.327451,-4.521743s4.482635,-3.061805 6.392941,-6.407467c1.665479,-2.91712 3.284551,-6.493589 4.599602,-9.740729c0.578206,-1.428245 1.08017,-2.708361 1.504472,-3.884441c0.035516,-0.007579 0.071506,-0.008957 0.107023,-0.019291c6.687963,-2.033854 9.568575,-3.740445 12.785881,-6.330302c0.011839,-0.008268 0.032675,-0.013091 0.044514,-0.021358c0.243405,-0.199114 0.45745,-0.439566 0.695647,-0.646259c0.237723,0.206692 0.437561,0.447145 0.680967,0.646259c0.011839,0.008957 0.032675,0.013091 0.044514,0.021358c3.210677,2.584345 6.081344,4.295759 12.771201,6.330302c0.040252,0.012402 0.081924,0.011024 0.12265,0.01998c0.423828,1.17608 0.925793,2.456196 1.503999,3.884441c1.315052,3.24645 2.933649,6.822919 4.599602,9.740729c1.908885,3.343596 4.298424,5.020561 6.374946,6.407467s3.880752,2.550585 5.327451,4.521743c3.374526,4.59753 6.113072,10.309822 9.074661,18.137267c2.793952,7.385123 5.288146,19.556555 7.760557,28.652403c2.320401,8.537089 3.246667,15.642488 6.659077,24.364223c3.218727,8.226361 7.622753,19.951338 12.785881,26.870025c4.887995,6.549396 9.925632,10.442105 15.591672,12.479404c5.868246,2.109641 12.430718,1.267714 18.042299,-3.152061c5.527763,-4.353633 10.0587,-11.705685 12.271131,-21.728894c2.204381,-10.001161 1.676845,-20.302715 -0.393521,-31.056237l0,0zm-51.849591,-285.897755c-0.001894,0.011713 -0.054458,0.258366 -0.089028,0.430609c0.020836,-0.380314 0.090922,-0.442322 0.089028,-0.430609zm-122.75346,0c-0.001894,-0.011713 0.068191,0.050295 0.089028,0.430609c-0.034096,-0.171555 -0.087133,-0.418897 -0.089028,-0.430609zm-6.63682,301.580204c-3.699382,9.321832 -8.871034,16.146818 -14.046475,19.661969c-5.175441,3.514461 -10.188927,3.74389 -14.153497,0.413385c-3.96457,-3.330505 -6.357424,-9.754508 -6.854653,-18.033921s0.989248,-18.220633 4.688157,-27.541776c5.547652,-13.979992 14.433366,-22.191885 21.62945,-22.399955c2.39901,-0.069586 4.586817,0.684841 6.570522,2.350783c3.965517,3.331194 6.357424,9.735906 6.854653,18.008429c0.497229,8.271145 -0.988775,18.219255 -4.688157,27.541087zm53.532118,-134.142054c0.160534,0.062008 0.287446,0.130216 0.370791,0.176378c1.395555,0.774408 1.96287,2.389365 2.308562,3.746646c0.345692,1.356592 0.521853,2.797238 0.636453,4.370857c0.108443,1.491631 0.154378,3.114856 0.15864,4.803534c-0.00663,-1.689367 -0.053985,-3.313281 -0.162902,-4.805601c-0.114599,-1.573619 -0.293602,-3.009443 -0.639294,-4.366035c-0.345692,-1.356592 -0.913007,-2.972238 -2.308562,-3.746646c-0.081924,-0.045472 -0.206942,-0.115059 -0.363687,-0.179133zm1.739353,36.594218c0.119808,-0.439566 0.227778,-0.86742 0.311597,-1.276671c0.111758,-0.544979 0.169531,-0.966632 0.229672,-1.499899c-0.057773,0.531889 -0.111285,0.952852 -0.222569,1.497143c-0.083819,0.408562 -0.195103,0.838483 -0.3187,1.279427zm23.907704,-28.300337c0.050196,-0.686219 0.118388,-1.342812 0.203627,-1.982181c-0.082871,0.63868 -0.148695,1.294584 -0.198891,1.980803c-0.121703,1.672142 -0.167164,3.50895 -0.163375,5.420166c-0.006156,-1.911217 0.036937,-3.747335 0.15864,-5.418788l0,0zm91.885501,127.888917c-0.492967,8.279413 -2.873035,14.704104 -6.837132,18.033921c-3.96457,3.330505 -8.977583,3.101076 -14.153497,-0.413385c-5.175441,-3.514461 -10.347567,-10.339448 -14.046948,-19.66128c-3.699382,-9.32321 -5.181123,-19.269253 -4.688157,-27.541776c0.492967,-8.272523 2.872088,-14.677234 6.837132,-18.00774c1.734618,-1.457182 3.66576,-2.252259 5.71813,-2.376964c7.351408,-0.445767 16.701203,7.859138 22.481842,22.426136c3.699855,9.321832 5.181597,19.261674 4.68863,27.541087l0,0z"/>
    </g>
    <g stroke="null"/>
    <g stroke="null"/>
    <g stroke="null"/>
    <g stroke="null"/>
    <g stroke="null"/>
    <g stroke="null"/>
    <g stroke="null"/>
    <g stroke="null"/>
    <g stroke="null"/>
    <g stroke="null"/>
    <g stroke="null"/>
    <g stroke="null"/>
    <g stroke="null"/>
    <g stroke="null"/>
    <g stroke="null"/>
   </g>
   <g/>
   <g/>
   <g/>
   <g/>
   <g/>
   <g/>
   <g/>
   <g/>
   <g/>
   <g/>
   <g/>
   <g/>
   <g/>
   <g/>
   <g/>
   <g stroke="null">
    <g stroke="null" transform="matrix(0.9991692962878193,0,0,0.9972028240253609,-2043.3458598658376,-2036.3256915226905) ">
     <g stroke="null">
      <g stroke="null">
       <g stroke="null">
        <path stroke="null" d="m2550.986799,2131.708182c-4.036,-12.935 -15.637,-22.502 -29.907,-22.502l-31.782,0l0,49.326c0,26.284 -21.39,47.674 -47.674,47.674s-47.674,-21.39 -47.674,-47.674l0,-49.326l-190.855,0l0,49.326c0,26.284 -21.39,47.674 -47.674,47.674s-47.674,-21.39 -47.674,-47.674l0,-49.326l-31.623,0c-14.27,0 -25.903,9.567 -29.907,22.502l-1.875,0l0,387.365c0,17.544 14.239,31.782 31.782,31.782l444.955,0c17.544,0 31.782,-14.239 31.782,-31.782l0,-387.365l-1.874,0zm-29.908,387.365l-444.955,0l0,-254.26l444.955,0l0,254.26z"/>
        <path stroke="null" d="m2155.421799,2174.424182c8.772,0 15.891,-7.119 15.891,-15.891l0,-100.306c0,-8.772 -7.119,-15.891 -15.891,-15.891s-15.891,7.119 -15.891,15.891l0,100.306c0,8.772 7.119,15.891 15.891,15.891z"/>
        <path stroke="null" d="m2441.622799,2174.424182c8.74,0 15.891,-7.119 15.891,-15.891l0,-100.306c0,-8.772 -7.151,-15.891 -15.891,-15.891s-15.891,7.119 -15.891,15.891l0,100.306c0,8.772 7.151,15.891 15.891,15.891z"/>
       </g>
      </g>
     </g>
    </g>
    <g stroke="null" transform="matrix(0.9991692962878193,0,0,0.9972028240253609,-2043.3458598658376,-2036.3256915226905) "/>
    <g stroke="null" transform="matrix(0.9991692962878193,0,0,0.9972028240253609,-2043.3458598658376,-2036.3256915226905) "/>
    <g stroke="null" transform="matrix(0.9991692962878193,0,0,0.9972028240253609,-2043.3458598658376,-2036.3256915226905) "/>
    <g stroke="null" transform="matrix(0.9991692962878193,0,0,0.9972028240253609,-2043.3458598658376,-2036.3256915226905) "/>
    <g stroke="null" transform="matrix(0.9991692962878193,0,0,0.9972028240253609,-2043.3458598658376,-2036.3256915226905) "/>
    <g stroke="null" transform="matrix(0.9991692962878193,0,0,0.9972028240253609,-2043.3458598658376,-2036.3256915226905) "/>
    <g stroke="null" transform="matrix(0.9991692962878193,0,0,0.9972028240253609,-2043.3458598658376,-2036.3256915226905) "/>
    <g stroke="null" transform="matrix(0.9991692962878193,0,0,0.9972028240253609,-2043.3458598658376,-2036.3256915226905) "/>
    <g stroke="null" transform="matrix(0.9991692962878193,0,0,0.9972028240253609,-2043.3458598658376,-2036.3256915226905) "/>
    <g stroke="null" transform="matrix(0.9991692962878193,0,0,0.9972028240253609,-2043.3458598658376,-2036.3256915226905) "/>
    <g stroke="null" transform="matrix(0.9991692962878193,0,0,0.9972028240253609,-2043.3458598658376,-2036.3256915226905) "/>
    <g stroke="null" transform="matrix(0.9991692962878193,0,0,0.9972028240253609,-2043.3458598658376,-2036.3256915226905) "/>
    <g stroke="null" transform="matrix(0.9991692962878193,0,0,0.9972028240253609,-2043.3458598658376,-2036.3256915226905) "/>
    <g stroke="null" transform="matrix(0.9991692962878193,0,0,0.9972028240253609,-2043.3458598658376,-2036.3256915226905) "/>
    <g stroke="null" transform="matrix(0.9991692962878193,0,0,0.9972028240253609,-2043.3458598658376,-2036.3256915226905) "/>
   </g>
  </g>
 </g>
</svg>