<svg viewBox="0 0 611.978 611.977" xmlns="http://www.w3.org/2000/svg">

 <g>
  <title>background</title>
  <rect fill="none" id="canvas_background" height="402" width="582" y="-1" x="-1"/>
 </g>
 <g>
  <title>Layer 1</title>
  <g id="svg_44">
   <g id="svg_1">
    <path id="svg_2" d="m584.804,0.055l-114.47,0l0,57.235c0,15.031 -12.166,27.174 -27.175,27.174c-15.03,0 -27.174,-12.166 -27.174,-27.174l0,-57.235l-213.491,0l0,57.235c0,15.031 -12.166,27.174 -27.174,27.174c-15.008,0 -27.196,-12.166 -27.196,-27.174l0,-57.235l-120.95,0c-15.008,0 -27.174,12.166 -27.174,27.174l0,557.52c0,15.098 12.166,27.174 27.174,27.174l557.63,0c15.03,0 27.174,-12.1 27.174,-27.174l0,-557.52c0.022,-15.008 -12.144,-27.174 -27.174,-27.174zm-27.174,557.52l-503.26,0l0,-424.824l503.26,0l0,424.824z"/>
   </g>
   <g id="svg_3"/>
   <g id="svg_4"/>
   <g id="svg_5"/>
   <g id="svg_6"/>
   <g id="svg_7"/>
   <g id="svg_8"/>
   <g id="svg_9"/>
   <g id="svg_10"/>
   <g id="svg_11"/>
   <g id="svg_12"/>
   <g id="svg_13"/>
   <g id="svg_14"/>
   <g id="svg_15"/>
   <g id="svg_16"/>
   <g id="svg_17"/>
   <g stroke="null" id="svg_43">
    <g stroke="null" transform="matrix(0.4355753361470731,0,0,0.447807143766523,-2093.216115957799,-2094.870950112914) " id="svg_22">
     <g stroke="null" id="svg_23">
      <path stroke="null" id="svg_24" d="m5743.872788,5176.260301c37.5,-91.9 -20.299,-144.6 -44.199,-161.7c-4.899,-3.5 -11.899,-1.8 -14.7,3.5l-150.899,290.6l70.399,135.6l139.399,-268z"/>
      <g stroke="null" id="svg_25">
       <path stroke="null" id="svg_26" d="m5181.472788,5851.659301c91.6,47.7 204.5,12.2 252.2,-79.3l0.3,0.2l55,-105.9l-70.399,-135.6l-14.101,27.1c-14.399,-15.399 -31.6,-28.6 -51.399,-38.699c-91.8,-47 -203.3,-11.4 -251,80c-47.701,91.6 -12.101,204.5 79.399,252.199zm85.6,-265.399c54.1,0 98,43.899 98,98c0,54.1 -43.9,98 -98,98c-54.1,0 -98,-43.9 -98,-98c0,-54.101 43.8,-98 98,-98z"/>
       <path stroke="null" id="svg_27" d="m5920.971788,5599.460301c-33.398,-64.101 -98.199,-100.7 -165.6,-100.7c-28.699,0 -57.899,6.7 -85.399,20.7c-19.8,10.199 -37.1,23.399 -51.399,38.699c0,0 -280,-539.2 -280.5,-540.1c-2.601,-5.1 -9.7,-7.1 -14.7,-3.5c-24,17.1 -81.8,69.8 -44.2,161.7l309.901,596.2l0.3,-0.2c33.3,63.899 98.5,100.6 165.899,100.6c29.1,0 58.699,-6.8 86.301,-21.2c91.598,-47.699 127.198,-160.599 79.397,-252.199zm-164.898,182.8c-54.101,0 -98,-43.9 -98,-98c0,-54.101 43.899,-98 98,-98c54.1,0 98,43.899 98,98c0,54.1 -43.901,98 -98,98z"/>
      </g>
     </g>
    </g>
    <g stroke="null" transform="matrix(0.4355753361470731,0,0,0.447807143766523,-2093.216115957799,-2094.870950112914) " id="svg_28"/>
    <g stroke="null" transform="matrix(0.4355753361470731,0,0,0.447807143766523,-2093.216115957799,-2094.870950112914) " id="svg_29"/>
    <g stroke="null" transform="matrix(0.4355753361470731,0,0,0.447807143766523,-2093.216115957799,-2094.870950112914) " id="svg_30"/>
    <g stroke="null" transform="matrix(0.4355753361470731,0,0,0.447807143766523,-2093.216115957799,-2094.870950112914) " id="svg_31"/>
    <g stroke="null" transform="matrix(0.4355753361470731,0,0,0.447807143766523,-2093.216115957799,-2094.870950112914) " id="svg_32"/>
    <g stroke="null" transform="matrix(0.4355753361470731,0,0,0.447807143766523,-2093.216115957799,-2094.870950112914) " id="svg_33"/>
    <g stroke="null" transform="matrix(0.4355753361470731,0,0,0.447807143766523,-2093.216115957799,-2094.870950112914) " id="svg_34"/>
    <g stroke="null" transform="matrix(0.4355753361470731,0,0,0.447807143766523,-2093.216115957799,-2094.870950112914) " id="svg_35"/>
    <g stroke="null" transform="matrix(0.4355753361470731,0,0,0.447807143766523,-2093.216115957799,-2094.870950112914) " id="svg_36"/>
    <g stroke="null" transform="matrix(0.4355753361470731,0,0,0.447807143766523,-2093.216115957799,-2094.870950112914) " id="svg_37"/>
    <g stroke="null" transform="matrix(0.4355753361470731,0,0,0.447807143766523,-2093.216115957799,-2094.870950112914) " id="svg_38"/>
    <g stroke="null" transform="matrix(0.4355753361470731,0,0,0.447807143766523,-2093.216115957799,-2094.870950112914) " id="svg_39"/>
    <g stroke="null" transform="matrix(0.4355753361470731,0,0,0.447807143766523,-2093.216115957799,-2094.870950112914) " id="svg_40"/>
    <g stroke="null" transform="matrix(0.4355753361470731,0,0,0.447807143766523,-2093.216115957799,-2094.870950112914) " id="svg_41"/>
    <g stroke="null" transform="matrix(0.4355753361470731,0,0,0.447807143766523,-2093.216115957799,-2094.870950112914) " id="svg_42"/>
   </g>
  </g>
 </g>
</svg>