<?xml version="1.0" encoding="iso-8859-1"?>
<!-- Generator: Adobe Illustrator 19.0.0, SVG Export Plug-In . SVG Version: 6.00 Build 0)  -->
<svg version="1.1" xmlns="http://www.w3.org/2000/svg" xmlns:xlink="http://www.w3.org/1999/xlink" x="0px" y="0px"
	 viewBox="0 0 511.994 511.994" style="enable-background:new 0 0 511.994 511.994;" xml:space="preserve">
<g>
	<g>
		<path d="M479.449,298.412c-1.73,2.707-3.011,5.53-4.796,8.252c-2.112,3.218-4.323,6.491-6.279,9.785
			c-4.271,7.192-9.667,13.37-15.143,19.678c-3.557,4.097-6.483,8.521-9.01,13.212c-5.912,6.333-11.358,13.089-16.496,19.469
			c-2.981,3.702-5.147,7.712-7.58,11.78c-2.007,3.355-4.749,7.343-4.529,11.432c0.207,3.827,1.008,4.14,1.208,6.466
			c-0.462,3.24-0.694,6.538-1.153,9.749c-0.931,6.512-2.779,14.193-2.246,20.721c0.099,1.212,0.401,2.286,0.845,3.231
			c-0.095,1.774-0.265,4.651,0.218,3.325c0.044,1.457,0.445,2.839,1.263,3.997c-0.009,0.383-0.016,0.771-0.02,1.165
			c-0.035,3.107-0.887,6.316,0.097,9.311c1.118,3.405,4.91,4.207,7.551,1.994c3.4-2.849,3.714-6.862,3.578-10.908
			c0.579-0.373,1.127-0.798,1.617-1.294c2.1-2.126,2.28-4.821,2.543-7.542c1.616-1.362,3.316-2.652,4.251-3.707
			c2.503-2.822,4.832-5.8,7.022-8.867c2.618-3.668,5.122-7.423,7.575-11.211c3.098-2.474,5.392-6.215,7.405-10.023
			c1.559,0.237,3.26-0.242,4.437-1.824c1.854-2.494,3.044-5.559,3.978-8.791c4.695-3.415,8.754-7.176,12.536-11.487
			c3.181-1.139,5.918-3.877,5.774-7.101c0.082-0.336,0.143-0.692,0.218-1.034c2.955-5.812,2.622-11.528,2.326-18.782
			c-0.289-7.081-0.06-15.13-1.776-22.06c2.039-7.963,5.726-15.558,7.249-23.597C493.55,296.159,483.831,291.56,479.449,298.412z"/>
	</g>
</g>
<g>
	<g>
		<path d="M497.024,307.499c-0.043-11.022-0.949-22.377,0.008-33.36c0.9-10.33,3.664-20.849,3.68-31.209
			c0.01-6.454-2.559-11.968-9.302-13.345c-5.088-1.038-10.289-0.204-15.444-1.279c-5.751-1.199-11.573-2.295-17.298-3.602
			c-5.498-1.257-10.973-2.666-16.469-3.954c-2.331-0.547-4.658-1.189-7.036-1.504c-1.852-0.246-3.714-0.086-5.569,0.01
			c0.111-5.939,0.327-11.877,0.741-17.804c0.567-8.099,2.694-15.832,2.588-23.969c-0.039-3.001-0.748-7.027,0.743-9.777
			c1.271-2.341,4.713-3.958,6.904-5.294c6.912-4.213,13.754-8.127,20.436-12.697c6.306-4.314,13.315-6.792,18.887-12.223
			c1.134-1.105,1.516-2.762,1.13-4.273c-2.074-8.121-11.984-10.778-14.331-18.981c-0.471-1.646-2.033-2.316-3.619-2.056
			c-5.781,0.951-10.187,4.146-14.498,7.942c-2.745,2.415-5.417,4.892-8.438,6.968c-2.886,1.984-6.231,3.384-8.932,5.617
			c-2.946,2.437-5.018,4.739-8.531,6.526c-3.585,1.825-7.146,3.721-10.565,5.848c-5.349,3.325-8.004,6.682-9.449,12.836
			c-1.374,5.85-2.866,10.663-1.798,16.631c0.681,3.808,0.358,7.38,0.404,11.211c0.055,4.537,0.934,8.958,1.287,13.466
			c0.652,8.312-0.101,16.808-0.081,25.143c0.021,9.217,0.6,18.19-0.537,27.352c-0.251,2.023,1.837,3.393,3.547,3.549
			c0.051,0.004,0.103,0.009,0.153,0.014c7.796,4.966,22.638,7.574,24.422-4.97c0.978-6.875-0.582-14.814-0.57-21.784
			c0.001-1,0.016-2.001,0.022-3.001c5.492,2.987,11.207,4.626,17.719,6.233c9.439,2.33,18.865,4.911,28.407,6.807
			c3.805,0.757,7.507,0.69,11.33,0.94c-3.887,1.476-7.622,4.052-10.886,5.966c-7.083,4.157-14.521,7.574-21.912,11.146
			c-7.305,3.532-14.98,6.725-21.593,11.496c-4.927,3.554-9.217,10.382-15.449,11.432c-6.546,1.102-12.562-4.813-18.352-7.066
			c-6.646-2.586-13.795-3.568-20.513-5.961c-7.163-2.55-12.452-6.755-18.532-11.071c-1.623-1.152-3.447-2.369-5.379-3.37
			c3.323-1.114,7.287-1.692,9.428-2.288c6.11-1.701,11.555-4.934,17.583-6.818c3.066-0.958,6.288-1.462,9.196-2.887
			c2.854-1.399,5.198-3.541,8.255-4.531c5.37-1.742,4.8-10.773-1.398-10.334c-3.219,0.228-5.611,1.257-8.37,2.915
			c-3.541,2.125-6.755,2.881-10.67,4.003c-7.098,2.036-13.571,5.387-20.762,7.248c-0.403,0.105-0.79,0.213-1.186,0.319
			c1.525-5.844-1.859-12.997-3.048-18.62c-0.714-3.375-0.696-6.866-1.467-10.228c-0.892-3.882-2.356-7.662-3.347-11.53
			c-1.157-4.523-0.981-8.872-1.467-13.464c-0.35-3.31-1.274-6.5-1.772-9.779c-1.247-8.204-3.419-15.981-4.981-24.113
			c-1.684-8.765-3.155-17.652-3.311-26.587c-0.14-7.982-1.871-15.402-3.486-23.183c-1.638-7.898-4.146-15.522-5.816-23.38
			c-0.785-3.689-0.316-7.515-1.084-11.175c-0.284-1.352-0.753-2.624-1.326-3.848c3.665,0.012,8.18,0.684,11.685-0.626
			c8.435-3.156,5.581-13.383,3.554-19.701c-2.724-8.497-0.45-16.852-0.62-25.496c-0.143-7.261-2.401-14.776-9.989-17.289
			c-4.216-1.396-8.501-0.391-12.673,0.536c-5.534,1.229-11.103,0.574-16.715,1.343c-10.968,1.505-21.614,3.486-32.661,4.49
			c-11.197,1.017-22.345,1.863-33.546,2.82c-6.07,0.519-12.112,0.248-18.165,1.07c-6.326,0.858-12.531,1.53-18.929,1.58
			c-13.106,0.105-25.698,1.858-38.72,2.675c-12.902,0.811-25.615,1.959-38.469,3.36c-5.111,0.558-10.462-0.401-15.505,0.669
			c-2.798,0.594-5.268,2.062-8.055,2.678c-0.068,0.016-0.137,0.025-0.207,0.039c-1.91-1.922-5.64-1.814-6.598,1.093
			c-1.002,0.153-2.001,0.315-2.992,0.514c-2.108,0.424-2.666,2.891-1.785,4.524c-0.812,0.235-1.546,0.787-1.874,1.662
			c-1.461,3.894-3.919,7.129-5.667,10.861c-1.645,3.51-2.67,7.271-3.863,10.948c-3.312,10.22-6.823,20.197-9.297,30.671
			c-4.923,20.828-10.174,41.569-14.217,62.594c-3.924,20.418-7.071,40.991-11.573,61.295c-4.49,20.25-7.576,40.528-11.219,60.916
			c-3.489,19.538-4.813,39.238-7.364,58.842c-0.588,4.519-0.157,8.897-0.37,13.416c-0.221,4.69-1.262,9.367-1.602,14.071
			c-0.352,4.863-1.33,9.524-1.861,14.345c-0.599,5.438-0.237,10.723-1.224,16.143c-1.555,8.545-1.662,17.294-2.619,25.933
			c-1.107,9.994-1.043,20.56-0.592,30.605c0.262,5.81,1.942,12.183,8.287,13.992c6.911,1.972,13.988-2.384,20.083-4.958
			c9.475-4.003,18.878-3.264,28.343,0.065c4.519,1.589,9.242,2.346,13.872,3.541c5.117,1.322,9.201,3.379,13.833,5.794
			c4.341,2.263,8.956,3.652,13.02,6.463c3.945,2.73,7.418,5.585,12.193,6.806c5.192,1.328,10.594,0.426,15.852,1.023
			c3.153,0.357,6.225,1.081,9.345,1.551c7.665,1.957,34.844,1.403,45.968-6.163c8.148,16.776,24.151,25.861,41,33.316
			c9.242,4.089,19.21,7.56,29.336,8.464c4.699,0.42,9.417,0.182,14.122,0.013c5.357-0.192,9.908,0.462,15.164,1.301
			c4.582,0.734,8.51,0.462,12.931-0.862c5.166-1.547,10.427-1.182,15.466-3.317c8.358-3.542,16.58-8.677,22.611-15.573
			c5.688-6.505,9.502-14.348,12.514-22.345c0.097-0.256,0.175-0.513,0.268-0.768c3.213,2.771,6.591,5.191,10.449,7.385
			c6.782,3.857,13.57,8.248,20.515,11.711c3.213,1.602,6.72,2.003,10.172,2.799c3.809,0.879,7.404,2.33,11.065,3.672
			c5.693,2.086,13.271,5.19,19.114,2.044c5.939-3.198,11.781-6.381,17.901-9.368c8.327-4.063,17.053-7.449,25.119-12.009
			c6.463-3.655,12.856-7.118,19.479-10.45c6.33-3.184,7.948-7.526,7.479-14.366c-0.14-2.05-2.032-3.566-3.852-3.588
			c-0.094-0.467-0.192-0.935-0.297-1.404c-1.22-5.508-1.328-10.246-0.601-15.844c0.629-4.859,1.407-9.738,1.14-14.653
			c-0.256-4.74-2.169-9.556-1.598-14.25c0.581-4.778,1.645-9.127,1.521-14.016c-0.153-5.984,0.103-11.071,1.255-16.915
			c1.982-10.053,0.191-20.819,0.255-30.997c0.033-5.153,1.632-9.701,2.176-14.747C497.665,318.389,497.046,312.872,497.024,307.499z
			 M426.287,164.003c-2.592,5.068-1.241,11.349-1.525,16.781c-0.382,7.292-2.503,14.549-3.133,21.893
			c-0.739,8.6-1.089,17.227-1.276,25.856c-0.081,3.721-0.275,7.487-0.112,11.207c0.098,2.253,1.308,6.297,0.468,8.357
			c-1.359,3.337-4.75,0.913-7.704,0.33c-0.981-0.194-1.904-0.262-2.822-0.262c3.17-13.148,1.644-27.187,1.58-40.698
			c-0.035-7.456-1.607-14.347-2.392-21.705c-0.328-3.078-0.272-6.16-0.798-9.222c-0.618-3.598-1.668-6.257-0.974-9.91
			c0.494-2.605,1.016-5.232,1.552-7.83c0.96-4.656,2.818-6.641,6.869-9.203c5.026-3.177,11.211-5.348,15.577-9.421
			c4.702-4.387,10.186-7.583,14.982-11.882c4.123-3.695,8.858-9.371,14.644-10.267c0.571,2.875,1.888,5.548,3.567,8.036
			c1.599,2.371,4.834,4.533,6.62,7.064c-4.79,3.553-10.463,5.795-15.327,9.279c-6.432,4.607-13.094,8.49-19.765,12.729
			C432.643,157.472,428.338,159.987,426.287,164.003z M111.459,29.818c9.753,0.851,19.057-1.574,28.771-1.383
			c9.74,0.191,20.043-0.46,29.717-1.76c10.45-1.403,20.509-1.187,31.024-1.344c10.015-0.15,19.962-1.767,29.975-2.212
			c4.426-0.197,8.75-0.862,13.132-1.445c5.241-0.697,10.475-0.099,15.728-0.531c9.407-0.773,19.037-1.414,28.343-3.03
			c4.724-0.82,9.411-1.955,14.172-2.554c4.984-0.626,9.994,0.123,14.965-0.754c2.154-0.381,7.315-2.698,8.855-1.025
			c1.625,1.763,0.619,7.747,0.511,9.904c-0.367,7.46-0.853,14.952,1.449,22.195c0.428,1.343,1.057,4.396,1.784,6.076
			c-4.336-0.634-9.596-0.026-13.909,0.098c-10.122,0.29-20.092,2.333-30.11,3.626c-9.259,1.196-18.578,1.812-27.821,3.056
			c-10.572,1.423-21.221,0.787-31.834,1.629c-4.96,0.394-9.846,1.412-14.804,1.751c-5.202,0.356-10.424-0.029-15.628,0.267
			c-9.805,0.556-19.593,2.984-29.264,4.617c-11.009,1.861-22.459,2.456-33.308,4.988c-4.932,1.151-9.706,2.698-14.811,2.832
			c-4.499,0.118-5.691-0.003-6.968-4.238c-1.274-4.221-1.646-8.095-1.628-12.484c0.021-4.684-1.71-8.589-2.15-13.014
			c-0.434-4.362-1.101-7.397-3.651-11.112c-0.748-1.088-1.583-2.155-2.418-3.234C104.885,30.224,107.9,29.506,111.459,29.818z
			 M29.67,383.607c0.668-4.158,0.527-8.213,0.735-12.392c0.218-4.384,1.362-8.693,1.769-13.078c0.455-4.91,0.91-9.73,1.525-14.621
			c0.676-5.377-0.098-10.756,0.594-16.124c2.326-18.055,3.572-36.191,6.487-54.208c3.164-19.568,5.734-39.115,10.122-58.474
			c4.416-19.48,7.278-39.246,10.557-58.937c3.796-22.785,8.699-45.368,13.26-68.007c2.129-10.568,5.043-20.8,7.656-31.246
			c2.104-8.413,5.059-17.443,5.803-26.085c0.021-0.23,0.008-0.439-0.02-0.638c0.353,0.081,0.706,0.16,1.059,0.238
			c0.174,1.208,0.505,2.415,1.045,3.642c0.592,1.348,1.3,2.528,1.984,3.665c-0.424,1.483-0.714,3.053-0.807,4.86
			c-0.288,5.647-2.433,10.774-2.433,16.453c0.001,5.747,0.765,11.632,0.165,17.37c-0.588,5.637-2.815,10.076-2.287,15.925
			c0.573,6.322-2.035,10.295-3.315,16.272c-0.573,2.673-0.251,5.339-0.354,8.031c-0.136,3.56-1.19,6.873-1.742,10.366
			c-1.938,12.255-0.468,25.536-0.939,37.951c-0.475,12.521-0.424,24.763,1.42,37.174c0.991,6.674,1.506,12.719,0.432,19.408
			c-1.047,6.531-1.546,12.995-1.56,19.615c-0.029,13.454,0.135,26.911,0.183,40.365c0.024,6.291-0.417,12.742,0.318,18.997
			c0.753,6.406,2.206,12.478,2.335,18.986c0.148,7.38-0.366,14.744-0.445,22.12c-0.075,7.013,1.118,13.843,1.818,20.796
			c0.748,7.438,0.255,14.947,1.06,22.386c0.341,3.151,0.009,6.104-0.046,9.148c-0.001,0.092-0.008,0.167-0.012,0.252
			c-2.354,0.87-4.621,2.05-6.692,3.179c-8.529,4.647-16.958,9.638-25.319,14.58c-6.827,4.035-12.49,9.498-19.198,13.519
			c-3.315,1.989-5.625,4.978-8.661,7.312C26.188,416.066,27.077,399.73,29.67,383.607z M130.001,458.401
			c-8.706-0.098-15.287-5.876-23.21-9.024c-7.955-3.16-14.776-7.258-23.255-9.263c-7.602-1.798-15.393-5.302-23.105-6.11
			c-7.959-0.834-16.342-0.417-23.839,2.486c-3.104,1.202-6.093,2.7-9.262,3.741c-0.035,0.01-0.505,0.152-1.097,0.32
			c-0.024-0.855-0.059-1.71-0.047-2.565c-0.001-0.207,0-0.412-0.001-0.618c2.378-1.139,5.712-2.138,7.257-3.181
			c2.973-2.007,6.266-3.147,9.292-5.007c7.428-4.565,14.598-9.349,22.28-13.59c7.192-3.97,14.318-8.409,21.744-11.917
			c4.021-1.901,6.529-3.336,9.509,0.463c1.701,2.168,2.632,4.995,3.953,7.391c3.524,6.398,8.952,11.172,13.961,16.364
			c6.729,6.973,11.25,15.87,15.652,24.439c0.927,1.807,1.755,3.953,2.691,6.082C131.689,458.408,130.851,458.411,130.001,458.401z
			 M150.967,457.344c-0.125,1.599-0.337,3.124-0.842,4.659c-0.179,0.544-0.548,0.968-0.838,1.257
			c-0.575-0.336-1.148-0.679-1.721-1.017c-0.564-2.258-2.627-4.01-3.975-5.782c-2.126-2.799-3.869-5.85-5.612-8.895
			c-4.473-7.815-8.776-16.079-14.68-22.934c-5.434-6.308-12.057-11.279-15.947-18.802c-2.495-4.822-4.879-10.211-10.216-12.43
			c-1.719-0.715-3.483-0.949-5.247-0.868c0.701-1.493,0.943-3.453,1.066-5.059c0.498-6.465,0.599-13.12,0.625-19.605
			c0.025-6.22-0.897-12.304-1.412-18.488c-0.531-6.376-0.084-12.752,0.146-19.133c0.237-6.51,0.456-13.076-0.22-19.568
			c-0.616-5.901-2.027-11.479-2.023-17.455c0.009-13.357,0.19-26.714,0.15-40.071c-0.018-6.178-0.23-12.362,0.013-18.538
			c0.271-6.894,2.139-13.595,2.242-20.475c0.187-12.463-3.167-24.758-3.077-37.325c0.093-12.901,0.741-25.762,0.641-38.669
			c-0.046-6.058,0.919-11.405,1.805-17.345c0.344-2.307,0.271-4.49,0.353-6.801c0.161-4.447,1.895-7.712,3.139-11.873
			c1.773-5.935-0.739-11.817,0.764-17.684c1.042-4.069,1.467-7.789,1.56-11.76c1.521,6.819,4.481,12.791,11.424,15.029
			c-0.051,1.984-0.177,3.814-0.125,5.062c0.094,2.367,1.126,4.376,1.608,6.653c0.854,4.029-0.055,8.3,0.058,12.398
			c0.173,6.342,1.549,12.592,2.664,18.812c1.482,8.277,2.049,16.706,2.907,25.064c3.126,30.451,6.605,60.982,11.8,91.155
			c1.295,7.521,3.517,15.033,4.276,22.619c0.783,7.834,0.829,15.603,2.001,23.41c2.167,14.425,3.217,28.913,5.161,43.333
			c0.864,6.407,1.569,12.894,2.609,19.27c1.144,7.016,0.628,13.961,2.108,20.958c1.417,6.707,1.403,13.969,2.185,20.818
			c0.821,7.184,0.813,14.399,1.661,21.6c0.996,8.473,1.668,17.106,2.505,25.618C150.916,448.722,151.303,453.085,150.967,457.344z
			 M188.124,405.48c-0.734,10.147-2.388,19.863-2.598,30.117c-0.148,7.232,0.752,14.344,2.631,21.268
			c-0.909,0.225-1.978,0.473-3.629,1.049c-3.673,1.281-7.385,2.067-11.169,2.928c-3.975,0.904-7.966,1.759-11.915,2.749
			c1.967-9.949-0.28-24.819-0.89-29.19c-1.453-10.417-2.256-21.052-2.815-31.541c-0.4-7.499-1.493-15.058-2.168-22.536
			c-0.305-3.364-1.399-6.508-1.91-9.823c-0.693-4.505,0.038-9.009-0.753-13.531c-2.588-14.802-3.489-29.766-5.662-44.638
			c-1.199-8.199-2.592-16.372-3.728-24.58c-1.128-8.138-0.659-16.404-2.126-24.511c-6.159-34.031-11.358-68.031-15.346-102.414
			c-1.032-8.889-1.757-17.845-3.065-26.697c-1.445-9.778-3.453-18.944-3.57-28.879c-0.039-3.359-0.276-6.557-1.126-9.803
			c-0.536-2.052-1.132-2.22-1.385-4.56c-0.072-0.669-0.056-1.36-0.05-2.052c7.164,0.05,14.212-2.219,21.214-3.699
			c10.884-2.3,22.316-3.096,33.326-4.979c11.851-2.025,23.178-3.849,35.203-4.271c11.639-0.408,23.084-2.797,34.766-3.3
			c11.417-0.493,22.826-2.016,34.15-3.511c11.033-1.455,22.009-3.666,33.078-4.782c3.468-0.35,6.926-0.447,10.39-0.477
			c0.05,1.276,0.133,2.558,0.11,3.915c-0.075,4.213-1.189,8.136-0.812,12.375c0.646,7.266,2.339,14.608,3.375,21.841
			c1.193,8.329,2.691,16.245,2.875,24.683c0.195,8.839,1.723,17.59,3.187,26.288c1.344,8,3.831,15.607,4.796,23.674
			c0.472,3.94,1.62,7.776,1.867,11.741c0.241,3.825,0.077,7.495,0.855,11.282c0.802,3.907,1.964,7.751,3.112,11.566
			c1.125,3.732,1.245,7.434,1.899,11.252c0.628,3.674,1.823,7.218,2.597,10.858c0.868,4.073,0.977,6.873,3.312,10.147
			c-6.194,3.224-10.114,8.179-9.968,17.452c0.133,8.493,2.052,16.767,2.079,25.3c0.027,8.244-0.242,16.689,0.879,24.87
			c1.136,8.304,1.719,16.401,2.394,24.75c0.169,2.099,0.284,4.255,0.408,6.433c-4.206-3.925-8.885-7.302-14.186-9.798
			c-4.354-2.05-8.614-4.926-13.201-6.419c-4.345-1.415-9.174-1.149-13.692-1.262c-7.205-0.179-11.626,2.099-15.877,5.731
			c0.781-5.056,1.716-10.109,2.579-15.147c0.985-5.753,2.724-11.503,2.371-17.382c-0.345-5.751-2.099-18.817-10.228-18.215
			c-8.325,0.616-15.652,11.632-18.884,18.251c-5.118,10.478-5.517,21.189-5.581,32.635c-0.012,2.159,0.171,4.201,0.446,6.207
			c-8.601,2.063-17.648,3.699-25.823,6.826c-3.681,1.408-7.831,1.631-11.269,3.615c-2.809,1.621-5.493,3.928-7.864,6.119
			c-6.833,6.317-13.564,13.057-17.051,21.837C190.038,384.409,188.832,395.68,188.124,405.48z M356.649,404.426
			c0.098,9.773-0.905,18.842-2.241,28.491c-1.166,8.41-4.298,16.264-6.403,24.466c-1.947,7.587-5.105,14.544-9.399,21.065
			c-4.463,6.777-9.566,10.237-16.815,13.812c-3.812,1.879-7.015,3.244-11.231,3.802c-4.702,0.622-10.178,2.423-14.823,2.024
			c-3.153-0.271-6.283-1.4-9.453-1.747c-4.235-0.463-8.453-0.127-12.699,0.009c-9.233,0.297-17.57-1.06-26.344-4.048
			c-7.872-2.682-15.16-6.639-22.532-10.436c-7.985-4.114-14.848-8.554-19.478-16.536c-8.516-14.678-9.164-32.627-6.525-48.909
			c0.762-4.711,0.124-9.387,0.892-14.091c0.834-5.124,1.301-10.335,2.428-15.407c2.307-10.376,8.733-16.189,16.434-22.944
			c2.032-1.782,4.246-4.324,6.735-5.404c1.406-0.611,2.903-0.467,4.363-0.836c2.78-0.702,5.344-2.155,8.048-3.094
			c4.078-1.413,8.341-1.972,12.459-3.207c2.845-0.854,5.122-2.339,7.376-3.932c0.387,3.07-0.009,6.225,0.617,9.271
			c1.113,5.399,4.43,9.485,9.935,6.415c1.24-0.692,0.728-2.254-0.365-2.61c0.004-0.021,0.01-0.041,0.017-0.06
			c-2.717-0.974-0.804-11.436-1.053-14.523c-0.386-4.809-1.791-9.302-1.811-14.177c-0.021-5.004-0.197-10.106,0.14-15.103
			c0.379-5.616,2.018-11.176,4.577-16.18c2.411-4.716,5.768-7.396,9.26-11.182c0.29-0.213,0.603-0.39,0.904-0.587
			c0.218,0.414,0.556,0.941,1.043,1.603c0.785,2.42,1.187,5.049,1.091,7.591c-0.218,5.738-2.28,11.781-3.357,17.413
			c-2.328,12.18-4.625,23.946-4.357,36.406c0.064,2.939,0.571,7.691,1.988,11.666c-0.258,0.177-0.507,0.36-0.779,0.522
			c-8.663,5.152-16.007-0.518-24.572-1.602c-3.504-0.443-4.305,4.106-2.58,6.227c0.345,0.604,0.69,1.208,1.034,1.812
			c0.38,0.739,1.202,0.782,1.801,0.421c0.101,0.06,0.216,0.124,0.361,0.191c0.388,0.309,0.779,0.615,1.174,0.917
			c0.917,0.96,2.318,1.829,3.486,2.507c2.543,1.472,5.433,2.392,8.307,2.937c5.78,1.097,11.295,0.533,16.525-2.209
			c4.885-2.562,8.952-6.666,11.811-11.362c2.257-3.708,4.586-10.057,3.392-14.391c-0.486-1.769-2.372-2.307-3.902-1.587
			c-2.886,1.36-5.381,4.702-7.657,7.067c-0.272-1.888-0.422-3.793-0.502-5.702c-0.063-1.484-0.09-3.036-0.086-4.605
			c0.081-0.047,0.162-0.073,0.242-0.126c2.81-1.823,5.008-4.086,7.56-6.201c3.273-2.712,6.041-2.69,10.14-2.449
			c3.215,0.188,6.695-0.106,9.741,1.075c3.898,1.512,7.605,4.072,11.419,5.854c8.051,3.761,14.604,10.18,19.841,17.295
			c5.175,7.032,7.627,14.149,10.203,22.327c1.004,3.188,3.347,5.717,3.822,9.05C357.432,395.49,356.607,400.289,356.649,404.426z
			 M408.637,410.728c0.817,8.463-0.023,17.408-0.047,25.912c-0.042,15.163-1.117,30.805-0.463,46.065
			c-3.081-1.178-6.151-2.39-9.196-3.009c-7.06-1.434-12.503-4.795-18.909-8.001c-6.312-3.158-12.368-6.252-18.897-8.95
			c-0.981-0.405-2.048-0.807-3.126-1.087c0.416-1.544,0.815-3.099,1.2-4.684c1.334-5.472,3.727-10.665,4.86-16.177
			c2.127-10.348,3.557-20.919,3.562-31.489c0.005-9.276,1.598-18.922-2.654-27.373c-2.186-4.35-2.806-9.279-4.716-13.805
			c-2.199-5.213-5.039-10.078-8.392-14.633c-0.566-0.769-1.156-1.518-1.743-2.269c0.401-3.523,0.575-7.082,0.794-10.454
			c0.489-7.576,1.39-15.159,0.598-22.747c-1.548-14.829,0.411-29.825-1.451-44.582c-0.53-4.2-2.664-11.651-1.492-16.387
			c4.237,2.794,8.434,5.563,12.548,8.748c5.132,3.976,11.016,6.602,17.135,8.68c6.913,2.347,14.408,3.232,20.916,6.662
			c4.122,2.172,7.954,4.815,12.376,5.943c-2.076,15.517-4.068,30.805-4.271,46.573c-0.237,18.483-0.01,36.999-0.496,55.474
			C406.572,396.71,407.922,403.311,408.637,410.728z M485.988,323.661c-0.79,4.642-2.109,8.793-2.233,13.569
			c-0.258,9.846,1.768,20.652-0.356,30.319c-0.067,0.303-0.119,0.608-0.178,0.913c-0.069,0.025-0.14,0.048-0.207,0.085
			c-3.307,1.829-5.224,5.528-7.868,8.155c-2.785,2.768-5.748,5.361-8.582,8.081c-6.262,6.008-10.33,13.472-14.803,20.817
			c-5.28,8.668-12.29,15.84-18.582,23.736c-5.411,6.79-8.631,14.878-13.158,22.234c-0.676,1.098,0.792,2.039,1.685,1.3
			c7.438-6.151,12.398-15.263,18.719-22.505c6.041-6.92,12.273-13.541,17.193-21.341c5.058-8.014,9.547-15.354,16.476-21.924
			c2.226-2.11,5.641-5.136,8.112-8.484c-0.201,5.922-0.064,11.835-1.335,17.693c-1.032,4.761-0.735,8.665,0.16,13.421
			c1.016,5.395,0.609,10.646-0.122,16.06c-0.671,4.968-1.666,9.995-1.165,15.015c0.411,4.119,1.338,7.954,1.67,12.002
			c-0.624,0.764-0.932,1.644-0.986,2.539c-0.934,0.399-1.84,0.79-2.674,1.196c-7.142,3.483-13.711,8.017-20.894,11.435
			c-7.415,3.528-14.742,7.226-22.141,10.786c-3.24,1.559-6.658,2.823-9.698,4.769c-2.707,1.733-2.572,2.392-5.806,2.184
			c-0.428-0.027-0.855-0.071-1.284-0.127c0.913-15.751-0.233-31.998-0.314-47.698c-0.047-8.982,0.532-18.212-0.173-27.162
			c-0.234-2.983-1.06-5.834-1.598-8.763c-0.779-4.246-0.523-8.533-0.446-12.825c0.017-0.941,0.01-1.883,0.023-2.826
			c0.043-0.02,0.085-0.024,0.129-0.051c3.47-2.108,5.149-4.913,7.262-8.281c2.853-4.546,5.638-8.899,8.206-13.645
			c3.163-5.84,7.169-9.969,11.335-14.982c1.389-1.671,2.152-3.406,3.075-5.336c1.429-2.985,3.179-4.869,5.463-7.274
			c3.814-4.013,5.764-8.884,9.305-13.088c3.362-3.991,7.074-7.554,9.889-11.987c1.883-2.968,3.217-6.297,5.593-8.948
			c1.865-2.079,4.41-3.413,6.15-5.617c1.865-2.361,2.373-5.294,4.104-7.435c0.026,5.949,0.171,11.908,0.148,17.826
			C486.065,312.747,486.872,318.466,485.988,323.661z M489.731,248.212c-1.48,9.344-3.044,18.953-3.541,28.406
			c-0.103,1.968-0.162,3.944-0.201,5.919c-0.126,0.056-0.254,0.122-0.379,0.203c-2.686,1.101-4.437,2.581-5.687,5.37
			c-1.227,2.742-1.836,5.175-3.978,7.482c-1.607,1.731-3.451,3.086-4.901,4.977c-3.911,5.102-6.257,10.975-10.525,15.917
			c-3.655,4.233-6.186,8.138-9.01,12.915c-2.783,4.709-7.116,7.56-9.557,12.582c-2.397,4.931-6.712,8.044-10.004,12.367
			c-3.736,4.901-7.126,9.982-10.315,15.253c-2.501,4.137-3.597,9.553-6.181,13.625c0.149-16.081-0.209-32.186-0.414-48.26
			c-0.203-15.78,0.728-31.645-0.518-47.376c0.443,0.035,0.892,0.058,1.351,0.056c5.704-0.013,10.212-3.108,14.315-6.756
			c5.621-4.995,11.046-8.882,17.846-12.204c7.896-3.856,15.905-7.462,23.754-11.422c5.548-2.799,11.84-8.188,18.17-10.31
			C489.874,247.378,489.796,247.799,489.731,248.212z"/>
	</g>
</g>
<g>
	<g>
		<path d="M207.657,274.168c-12.529-21.655-16.944-49.494-18.726-74.05c-0.965-13.284-1.497-26.587-1.666-39.903
			c-0.169-13.26,0.931-26.48,1.045-39.736c0.016-1.678-2.572-1.676-2.605,0c-0.561,28.725-2.615,57.141-0.34,85.879
			c1.047,13.23,3.528,26.063,6.784,38.92c2.528,9.987,5.723,23.106,13.624,30.345C206.758,276.527,208.359,275.381,207.657,274.168z
			"/>
	</g>
</g>
<g>
	<g>
		<path d="M240.246,282.362c-1.186-2.946-4.159-4.847-6.134-7.309c-4.205-5.242-6.488-10.733-8.718-17.059
			c-3.815-10.832-5.722-22.46-7.626-33.763c-4.213-25.031-5.412-50.93-5.642-76.291c-0.02-2.037-3.164-2.041-3.167,0
			c-0.024,25.719,0.994,51.911,5.015,77.338c1.92,12.128,3.915,24.428,7.971,36.042c1.651,4.728,3.294,9.131,6.414,13.112
			c1.407,1.795,2.971,3.915,4.744,5.355c1.729,1.403,4.093,1.718,5.521,3.519C239.213,284.05,240.6,283.245,240.246,282.362z"/>
	</g>
</g>
<g>
	<g>
		<path d="M277.534,251.437c-1.203-0.348-3.041-5.372-3.547-6.237c-2.173-3.712-4.242-7.3-5.475-11.464
			c-2.337-7.89-3.167-16.448-4.675-24.531c-3.217-17.243-5.834-34.588-6.819-52.115c-0.144-2.58-4.17-2.601-4.034,0
			c1.042,19.959,4.222,39.66,7.885,59.283c1.603,8.595,2.155,17.736,6.271,25.608c1.791,3.425,5.365,12.145,10.089,11.713
			C278.473,253.581,278.848,251.815,277.534,251.437z"/>
	</g>
</g>
<g>
	<g>
		<path d="M64.094,269.504c-5.634,0.599-8.192,6.537-10.293,11.101c-2.091,4.54-9.463,10.611-5.657,16.006
			c0.765,1.081,2.405,1.254,3.132,0c2.294-3.952,6.527-6.805,8.596-11.094c1.542-3.196,2.452-8.97,5.562-11.065
			C67.4,273.13,66.932,269.202,64.094,269.504z"/>
	</g>
</g>
<g>
	<g>
		<path d="M57.833,295.05c-0.428,1.767-2.063,3.03-3.048,4.495c-1.105,1.649-1.794,3.325-3.184,4.782
			c-2.636,2.756-4.951,5.226-5.891,9.017c-0.237,0.953-0.06,2.301,0.779,2.95c1.438,1.113,2.796,1.309,4.289,0.001
			c0.939-0.822,1.357-2.49,2.037-3.534c0.748-1.149,1.62-2.159,2.507-3.2c1.651-1.942,2.705-3.742,3.761-6.04
			c1.142-2.484,2.892-4.441,3.429-7.181C63.105,293.308,58.574,291.985,57.833,295.05z"/>
	</g>
</g>
<g>
	<g>
		<path d="M59.181,313.553c-0.341-1.893-3.326-1.417-3.311,0.449c0.038,4.192-13.828,13.056-6.998,17.124
			c0.626,0.373,1.502,0.264,2.011-0.259c2.181-2.233,3.37-5.726,5.25-8.272C58.244,319.736,59.837,317.196,59.181,313.553z"/>
	</g>
</g>
<g>
	<g>
		<path d="M54.244,352.532c-4.167,4.996-12.036,11.768-10.21,19.084c0.707,2.833,5.306,3.006,5.909,0
			c1.25-6.238,5.094-10.62,8.753-15.649C60.575,353.385,56.306,350.061,54.244,352.532z"/>
	</g>
</g>
<g>
	<g>
		<path d="M56.935,370.985c-0.36-2.333-4.088-1.734-4.063,0.551c0.014,1.195-0.796,1.921-1.478,2.794
			c-0.749,0.958-1.275,1.931-1.717,3.064c-0.883,2.269-1.797,4.782-1.96,7.218c-0.085,1.28,1.344,2.28,2.522,1.921
			c3.754-1.145,3.775-4.477,4.737-7.678c0.38-1.266,1.143-2.297,1.665-3.5C57.281,373.884,57.178,372.55,56.935,370.985z"/>
	</g>
</g>
<g>
	<g>
		<path d="M314.193,151.271c-0.968-7.742-1.478-15.718-2.817-23.38c-1.125-6.429-1.254-13.069-2.524-19.438
			c-0.645-3.232-1.961-6.869-5.832-6.276c-1.447,0.221-1.113,2.208,0,2.611c2.871,1.037,1.923,7.898,1.965,10.317
			c0.084,4.791,1.096,9.326,1.842,14.042c0.838,5.297,0.934,10.637,1.841,15.934c0.846,4.947,2.008,9.957,1.641,15.008
			c-0.405,5.602-7.611,19.605-13.503,8.763c-2.235-4.112-3.038-9.749-3.893-14.318c-1.253-6.697-0.717-13.621-0.753-20.393
			c-0.033-6.65-0.09-13.153,1.199-19.716c0.446-2.276-3.035-3.256-3.498-0.964c-1.77,8.771-1.36,17.612-1.475,26.509
			c-0.109,8.404,0.748,16.047,2.718,24.201c1.139,4.703,3.109,10.134,7.865,12.31c5.582,2.552,10.191-2.507,12.867-6.971
			C315.148,163.99,314.965,157.44,314.193,151.271z"/>
	</g>
</g>
<g>
	<g>
		<path d="M314.78,209.764c-0.6-0.476-1.691-0.588-2.084,0.268c-0.314,0.681-0.248,1.366-0.477,2.053
			c-0.182,0.541-0.247,0.655-0.719,1.089c-0.414,0.382-0.906,0.416-1.363,0.709c-0.091,0.058-0.199,0.216-0.295,0.318
			c-0.017-0.047-0.165-0.073-0.207-0.088c-0.272-0.092-0.736-0.001-1.024,0.001c-0.536,0.005-0.654,0.668-0.258,0.952
			c0.339,0.243,0.679,0.395,1.085,0.497c0.456,0.115,0.808,0.369,1.27,0.437c0.871,0.128,1.977-0.026,2.772-0.4
			c0.934-0.439,1.808-1.359,2.083-2.372C315.863,212.126,315.727,210.512,314.78,209.764z"/>
	</g>
</g>
<g>
	<g>
		<path d="M215.779,395.66c-2.163,6.371-6.5,11.929-9.322,18.041c-2.031,4.399-4.561,9.36-1.733,13.863
			c0.692,1.101,2.507,1.576,3.448,0.445c3.581-4.297,4.745-10.773,7.111-15.869c2.445-5.266,5.395-9.853,5.812-15.76
			C221.32,393.194,216.714,392.903,215.779,395.66z"/>
	</g>
</g>
<g>
	<g>
		<path d="M220.71,412.936c-1.03,2.671-3.761,6.11-5.291,8.592c-1.778,2.887-2.418,5.502-3.674,8.593
			c-1.508,3.708-3.132,8.71,2.218,9.922c1.067,0.242,2.546-0.535,2.393-1.823c-0.267-2.22,0.289-3.608,1.156-5.668
			c1.036-2.457,1.365-5.052,2.483-7.494c1.657-3.621,3.651-7.67,3.976-11.682C224.132,411.375,221.335,411.319,220.71,412.936z"/>
	</g>
</g>
<g>
	<g>
		<path d="M226.724,431.189c-0.399-2.112-3.635-1.552-3.661,0.496c-0.086,6.541-6.214,11.441-5.589,18.306
			c0.186,2.039,2.244,2.776,3.793,1.572c2.977-2.314,3.58-6.641,4.42-10.113C226.545,437.904,227.41,434.822,226.724,431.189z"/>
	</g>
</g>
<g>
	<g>
		<path d="M230.734,447.897c-2.488-0.343-3.585,2.53-1.793,3.833c-0.136,1.831-1.663,3.859-2.023,5.649
			c-0.643,3.209,0.145,7.426,3.374,9.001c1.249,0.609,3.1,0.184,3.413-1.389c0.386-1.934-0.152-3.899-0.2-5.867
			c-0.038-1.547,0.455-2.789,0.747-4.29C234.843,451.792,234.292,448.386,230.734,447.897z"/>
	</g>
</g>
<g>
	<g>
		<path d="M339.125,394.138c-0.547-2.361-1.279-5.139-2.845-7.075c-1.931-2.39-5.323-1.993-7.107-4.314
			c-0.841-1.094-2.565-0.183-1.896,1.109c1.833,3.542,5.11,4.264,6.348,8.685c1.767,6.304-0.008,12.927-1.433,19.093
			c-2.181,9.445-6.691,18.038-12.01,26.107c-1.889,2.866-6.537,6.361-7.006,0.794c-0.254-3.001,1.298-6.946,2.015-9.857
			c1.5-6.1,2.905-12.187,3.833-18.407c0.842-5.632,1.62-11.575,0.794-17.247c-0.567-3.886-2.07-7.494-2.958-11.257
			c2.729,3.116,4.752,7.583,4.909,10.686c0.081,1.568,2.433,1.589,2.452,0c0.077-6.314-2.786-14.859-9.137-17.622
			c-1.466-0.637-3.326,0.08-3.311,1.9c0.069,7.991,4.135,15.02,3.852,23.139c-0.327,9.368-2.503,18.561-4.676,27.637
			c-1.148,4.792-3.732,11.704-0.97,16.47c2.29,3.952,6.47,3.252,9.724,0.91c4.973-3.578,7.274-9.96,10.909-14.693
			c3.697-4.817,5.602-10.068,7.121-15.968C339.435,407.616,340.686,400.9,339.125,394.138z"/>
	</g>
</g>
<g>
	<g>
		<path d="M378.428,282.117c-0.594-1.602-3.224-1.981-3.644,0c-0.396,1.861-3.315,4.128-4.331,5.799
			c-1.76,2.895-3.351,5.628-5.497,8.278c-2.664,3.291-6.824,7.134-5.594,11.698c0.268,0.99,1.478,1.501,2.364,0.961
			c2.237-1.361,3.124-3.445,4.645-5.543c2.025-2.794,4.474-5.315,6.246-8.29c1.641-2.758,3.176-5.357,4.909-8.012
			C378.686,285.233,379.2,284.201,378.428,282.117z"/>
	</g>
</g>
<g>
	<g>
		<path d="M379.449,297.652c-0.922,3.244-5.259,6.492-7.545,8.974c-2.414,2.623-4.091,5.314-6.19,8.17
			c-2.129,2.895-8.004,7.779-2.958,10.989c0.415,0.264,1.138,0.315,1.547,0.001c3.895-2.989,6.376-7.74,9.028-11.764
			c3.188-4.838,9.646-9.221,10.895-15.053C384.89,295.868,380.327,294.562,379.449,297.652z"/>
	</g>
</g>
<g>
	<g>
		<path d="M377.275,316.081c-1.287,4.187-5.394,7.683-8.293,10.84c-2.539,2.764-6.037,5.557-5.425,9.664
			c0.119,0.799,1.312,1.268,1.951,0.794c3.486-2.585,6.276-6.534,9.033-9.868c2.588-3.132,5.585-6.329,6.625-10.357
			C381.817,314.632,378.036,313.601,377.275,316.081z"/>
	</g>
</g>
<g>
	<g>
		<path d="M381.588,333.323c-0.298-1.071-1.795-1.016-2.118,0c-0.955,3.006-2.7,5.455-4.337,8.134
			c-1.41,2.303-2.317,4.813-3.861,7.024c-1.008,1.442,0.9,2.909,2.236,2.236c3.167-1.594,4.252-4.978,5.836-7.906
			C380.895,339.942,382.516,336.662,381.588,333.323z"/>
	</g>
</g>
<g>
	<g>
		<path d="M386.424,386.583c-3.129,3.758-5.275,7.806-7.766,11.963c-1.258,2.1-2.382,5.875-4.263,7.39
			c-0.846,0.681-0.158,2.265,0.902,2.18c2.853-0.229,5-3.086,6.598-5.178c3.073-4.021,5.128-8.565,8.429-12.453
			C392.614,387.786,388.693,383.858,386.424,386.583z"/>
	</g>
</g>
<g>
	<g>
		<path d="M386.659,403.817c-4.248,4.992-11.158,12.119-9.606,19.312c0.408,1.889,3.206,2.188,4.108,0.537
			c1.526-2.792,2.588-5.81,4.191-8.576c1.633-2.818,3.378-5.579,5.117-8.333C391.914,404.467,388.466,401.693,386.659,403.817z"/>
	</g>
</g>
<g>
	<g>
		<path d="M444.277,400.27c-1.428-2.131-0.553-33.333-10.236-25.95c-2.805,2.138-2.364,8.676-2.44,11.632
			c0,0.048,0.003,0.102,0.001,0.15c-0.663-1.005-1.651-1.623-3.104-2.178c-0.839-0.32-2.008,0.207-2.414,0.982
			c-0.833,1.59-1.44,3.188-1.9,4.791c-0.489,0.252-0.88,0.72-0.935,1.451c-0.149,2.02-0.203,3.997-0.197,5.951
			c-0.152,3.768,0.195,7.585,0.506,11.461c0.145,2.24,0.29,4.498,0.386,6.81c0.125,3.01,4.796,3.034,4.698,0
			c-0.046-1.42-0.161-2.854-0.303-4.294c-0.318-4.174-0.707-8.344-1.064-12.519c-0.005-2.223,0.173-4.422,0.68-6.577
			c0.105,1.546,0.123,3.069,0.247,3.687c0.603,2.989,1.621,5.702,3.445,8.154c1.281,1.723,4.06,1.676,4.723-0.617
			c2.045-7.075-0.821-15.473-0.158-22.765c0.35-3.859,0.377-0.637,0.468,1.621c0.089,2.19,0.273,4.21,0.639,6.374
			c0.871,5.157-1.021,10.884,2.785,15.053C442.115,405.688,445.97,402.793,444.277,400.27z"/>
	</g>
</g>
<g>
	<g>
		<path d="M449.989,377.375c0.01-2.282,0.36-4.617,0.048-6.891c-0.306-2.235-1.818-4.18-2.078-6.352
			c-0.008,0.001-0.016,0.001-0.025,0.003c-0.056-2.208-3.672-2.908-3.999-0.548c-0.288,2.087-0.003,2.873,0.509,4.909
			c0.714,2.845,0.322,5.309,0.093,8.184c-0.391,4.913-1.277,12.116,1.794,16.291c0.48,0.652,1.285,0.652,1.765,0
			C451.191,388.766,449.966,382.311,449.989,377.375z"/>
	</g>
</g>
<g>
	<g>
		<path d="M466.016,367.53c-1.645,0.863-2.959,1.829-4.456,2.954c-2.396,1.798-4.92,3.104-5.884-1.076
			c-0.611-2.648-0.124-5.802-0.203-8.516c-0.086-2.99-0.194-5.981-0.29-8.97c-0.059-1.84-2.801-1.842-2.861,0
			c-0.167,5.183-0.558,10.343-0.788,15.514c-0.15,3.345,0.485,7.158,3.324,9.322c5.498,4.189,12.138-2.248,13.522-7.41
			C468.756,367.949,467.243,366.887,466.016,367.53z"/>
	</g>
</g>
<g>
	<g>
		<path d="M477.655,353.207c-1.753-0.675-4.596,0.166-5.97-0.507c-1.695-0.832-1.057-6.02-0.932-8.273
			c0.39-7.02,2.509-13.22,1.058-20.257c-0.214-1.043-1.908-1.053-2.117,0c-1.023,5.128-2.048,10.187-3.159,15.299
			c-0.307-1.04-0.588-2.097-0.737-3.239c-0.264-2.002-2.962-2.065-3.167,0c-0.282,2.848,0.696,5.48,0.732,8.336
			c0.037,2.888-0.326,5.874-0.531,8.759c-0.136,1.935-0.435,3.938,0.007,5.858c0.076,0.327,1.591,3.389,1.99,3.806
			c-0.018,0.192-0.035,0.384-0.054,0.578c-0.055,0.612,0.535,1.009,1.063,1.063l0.872,0.088c0.586,0.059,1.121-0.364,1.421-0.816
			c0.761-1.139,0.816-2.01,0.624-3.4c-0.107-0.785-0.209-1.508-0.303-2.219c2.841,0.785,6.759-0.71,9.535-2.559
			C479.027,355.034,478.769,353.635,477.655,353.207z"/>
	</g>
</g>
<g>
</g>
<g>
</g>
<g>
</g>
<g>
</g>
<g>
</g>
<g>
</g>
<g>
</g>
<g>
</g>
<g>
</g>
<g>
</g>
<g>
</g>
<g>
</g>
<g>
</g>
<g>
</g>
<g>
</g>
</svg>
