<?xml version="1.0" encoding="iso-8859-1"?>
<!-- Generator: Adobe Illustrator 18.0.0, SVG Export Plug-In . SVG Version: 6.00 Build 0)  -->
<!DOCTYPE svg PUBLIC "-//W3C//DTD SVG 1.1//EN" "http://www.w3.org/Graphics/SVG/1.1/DTD/svg11.dtd">
<svg version="1.1" xmlns="http://www.w3.org/2000/svg" xmlns:xlink="http://www.w3.org/1999/xlink" x="0px" y="0px"
	 viewBox="0 0 460.103 460.103" style="enable-background:new 0 0 460.103 460.103;" xml:space="preserve">
<g id="XMLID_1278_">
	<path id="XMLID_1279_" d="M80.462,383.106c-14.083,0-25.499,37.416-25.499,51.499c0,14.082,11.416,25.499,25.499,25.499
		s25.499-11.416,25.499-25.499C105.961,420.522,94.545,383.106,80.462,383.106z"/>
	<path id="XMLID_1305_" d="M183.277,319.109c-14.083,0-25.499,37.416-25.499,51.499c0,14.083,11.416,25.499,25.499,25.499
		s25.499-11.416,25.499-25.499C208.776,356.525,197.359,319.109,183.277,319.109z"/>
	<path id="XMLID_1352_" d="M115.988,235.027c-14.083,0-25.499,37.416-25.499,51.499c0,14.082,11.416,25.499,25.499,25.499
		c14.082,0,25.499-11.416,25.499-25.499C141.487,272.443,130.07,235.027,115.988,235.027z"/>
	<path id="XMLID_1437_" d="M390.14,0H129.153c-8.284,0-15,6.716-15,15v123.889c0,2.862,0.818,5.664,2.359,8.076l58.418,91.434
		c2.756,4.314,7.521,6.924,12.641,6.924H390.14c8.284,0,15-6.716,15-15V15C405.14,6.716,398.424,0,390.14,0z"/>
</g>
<g>
</g>
<g>
</g>
<g>
</g>
<g>
</g>
<g>
</g>
<g>
</g>
<g>
</g>
<g>
</g>
<g>
</g>
<g>
</g>
<g>
</g>
<g>
</g>
<g>
</g>
<g>
</g>
<g>
</g>
</svg>
