<?xml version="1.0" encoding="iso-8859-1"?>
<!-- Generator: Adobe Illustrator 19.0.0, SVG Export Plug-In . SVG Version: 6.00 Build 0)  -->
<svg version="1.1" xmlns="http://www.w3.org/2000/svg" xmlns:xlink="http://www.w3.org/1999/xlink" x="0px" y="0px"
	 viewBox="0 0 512.001 512.001" style="enable-background:new 0 0 512.001 512.001;" xml:space="preserve">
<g>
	<g>
		<path d="M494.128,299.456h-26.843c-7.505-52.029-46.761-94.009-98.228-104.895c-30.092-34.228-71.088-55.951-115.688-61.707
			v-35.02c0-9.863-7.996-17.86-17.86-17.86c-9.863,0-17.86,7.996-17.86,17.86v33.85c-5.547,0.348-11.034,0.926-16.44,1.753V97.833
			c0-9.863-7.996-17.86-17.86-17.86c-9.863,0-17.86,7.996-17.86,17.86v44.786C99.674,166.781,51.193,227.144,44.273,299.455H17.872
			c-12.221,0-20.843,12.03-16.911,23.604l32.904,96.853c2.461,7.243,9.261,12.115,16.911,12.115h410.448
			c7.65,0,14.45-4.871,16.911-12.115l32.904-96.853C514.97,311.49,506.354,299.456,494.128,299.456z M165.492,299.456h-24.033
			c3.516-17.35,12.066-32.885,24.033-45.048V299.456z M165.492,209.392c-31.944,18.997-54.779,51.767-60.259,90.065H80.188
			c6.227-52.333,39.449-96.506,85.305-118.15V209.392z M217.651,299.456h-16.44v-67.339c5.283-1.754,10.776-3.04,16.44-3.785
			V299.456z M217.651,192.398c-5.592,0.523-11.082,1.406-16.44,2.642v-25.364c5.385-1.026,10.872-1.757,16.44-2.191V192.398z
			 M253.371,168.94c22.765,3.66,44.257,12.492,62.949,25.793c-10.53,2.305-20.864,6.066-30.068,10.755
			c-10.397-5.301-21.458-9.104-32.881-11.324V168.94z M320.04,299.456c0.104-0.135,0.204-0.271,0.31-0.405
			c11.75-14.69,34.189-14.641,45.861,0.405H320.04z M405.549,299.456c-2.431-8.482-6.64-16.445-12.189-23.219
			c-33.545-41.004-98.406-26.532-112.657,23.219h-25.536c14.784-72.943,107.124-97.043,155.81-40.81
			c10.159,11.734,17.033,25.814,20.09,40.81H405.549z"/>
	</g>
</g>
<g>
</g>
<g>
</g>
<g>
</g>
<g>
</g>
<g>
</g>
<g>
</g>
<g>
</g>
<g>
</g>
<g>
</g>
<g>
</g>
<g>
</g>
<g>
</g>
<g>
</g>
<g>
</g>
<g>
</g>
</svg>
