<?xml version="1.0" encoding="iso-8859-1"?>
<!-- Generator: Adobe Illustrator 16.0.0, SVG Export Plug-In . SVG Version: 6.00 Build 0)  -->
<!DOCTYPE svg PUBLIC "-//W3C//DTD SVG 1.1//EN" "http://www.w3.org/Graphics/SVG/1.1/DTD/svg11.dtd">
<svg version="1.1" xmlns="http://www.w3.org/2000/svg" xmlns:xlink="http://www.w3.org/1999/xlink" x="0px" y="0px"
	 viewBox="0 0 527.109 527.109" style="enable-background:new 0 0 527.109 527.109;"
	 xml:space="preserve">
<g>
	<path d="M523.697,440.809l-46.258-35.381c0,0-111.403-310.064-174.875-365.407C265.988,8.225,230.367-3.848,183.989,1.053
		C140.121,5.595,97.329,26.752,63.501,60.58C29.674,94.407,8.517,137.199,3.855,181.067c-4.901,46.378,7.411,89.647,38.967,118.575
		c79.728,72.674,355.964,166.148,355.964,166.148l13.508,49.365c9.203,3.586,18.168,7.77,27.133,11.953l32.633-31.078l52.234-13.625
		L523.697,440.809z M273.399,142.1c-3.108,29.524-17.93,58.929-41.478,82.477c-23.667,23.667-52.952,38.37-82.477,41.478
		c-27.014,2.867-50.92-4.543-67.296-20.918C65.772,228.76,58.361,204.854,61.23,177.84c3.107-29.524,17.93-58.929,41.477-82.477
		c23.667-23.667,52.953-38.37,82.477-41.477c27.014-2.869,50.92,4.542,67.296,20.918C268.737,91.06,276.267,114.966,273.399,142.1z
		 M183.63,176.884c-17.81,19.723-42.075,26.775-54.148,15.778c-12.072-10.997-7.53-35.859,10.28-55.462
		c17.81-19.723,42.075-26.775,54.148-15.778C205.982,132.298,201.44,157.161,183.63,176.884z"/>
</g>
<g>
</g>
<g>
</g>
<g>
</g>
<g>
</g>
<g>
</g>
<g>
</g>
<g>
</g>
<g>
</g>
<g>
</g>
<g>
</g>
<g>
</g>
<g>
</g>
<g>
</g>
<g>
</g>
<g>
</g>
</svg>
