<?xml version="1.0" encoding="iso-8859-1"?>
<!-- Generator: Adobe Illustrator 17.1.0, SVG Export Plug-In . SVG Version: 6.00 Build 0)  -->
<!DOCTYPE svg PUBLIC "-//W3C//DTD SVG 1.1//EN" "http://www.w3.org/Graphics/SVG/1.1/DTD/svg11.dtd">
<svg version="1.1" xmlns="http://www.w3.org/2000/svg" xmlns:xlink="http://www.w3.org/1999/xlink" x="0px" y="0px"
	 viewBox="0 0 297.171 297.171" style="enable-background:new 0 0 297.171 297.171;" xml:space="preserve">
<path d="M290.326,197.319l-15.875-5.378l5.377-15.874c1.786-5.271-1.04-10.991-6.311-12.776c-5.269-1.79-10.992,1.04-12.776,6.312
	l-2.705,7.985c-10.107-6.696-23.38-8.124-35.167-2.609c-20.58,9.63-42.615,15.123-64.615,16.501v-30.916
	c32-1.433,64.935-9.187,95.107-23.303c11.305-5.289,18.577-15.705,20.332-27.18l10.163,3.44c1.071,0.363,2.164,0.536,3.237,0.536
	c4.201,0,8.122-2.647,9.544-6.848c1.786-5.271-1.039-10.991-6.31-12.776l-15.873-5.376l5.376-15.873
	c1.786-5.271-1.04-10.991-6.312-12.776c-5.268-1.788-10.992,1.039-12.776,6.311l-2.704,7.984
	c-10.107-6.696-23.379-8.124-35.166-2.611c-20.582,9.631-42.617,15.124-64.617,16.502V11.416c0-5.569-4.433-10.078-10.001-10.078
	c-5.566,0-9.999,4.509-9.999,10.078v77.293c-23-1.172-44.178-6.634-64.018-16.394c-11.68-5.744-24.99-4.572-35.227,1.932
	l-2.564-7.529c-1.786-5.271-7.516-8.098-12.785-6.31c-5.271,1.786-8.1,7.507-6.314,12.777l5.376,15.872L6.848,94.433
	c-5.271,1.785-8.098,7.506-6.312,12.776c1.422,4.2,5.341,6.848,9.543,6.848c1.071,0,2.162-0.173,3.233-0.536l9.481-3.211
	c1.798,11.113,8.816,21.219,19.687,26.566c29.734,14.625,61.774,22.532,95.774,23.761v30.956c-23-1.171-44.178-6.634-64.02-16.393
	c-11.68-5.745-24.988-4.573-35.224,1.931l-2.565-7.53c-1.786-5.271-7.516-8.096-12.785-6.311c-5.271,1.786-8.1,7.507-6.314,12.777
	l5.376,15.873l-15.875,5.378c-5.27,1.785-8.096,7.506-6.31,12.777c1.423,4.199,5.341,6.847,9.543,6.847
	c1.072,0,2.162-0.173,3.235-0.536l9.479-3.211c1.799,11.113,8.817,21.219,19.688,26.565c29.73,14.624,61.773,22.531,95.773,23.761
	v32.31h20v-32.385c32-1.432,64.935-9.184,95.109-23.304c11.303-5.289,18.575-15.704,20.33-27.178l10.162,3.44
	c1.072,0.363,2.165,0.536,3.238,0.536c4.199,0,8.122-2.647,9.544-6.847C298.421,204.825,295.596,199.104,290.326,197.319z"/>
<g>
</g>
<g>
</g>
<g>
</g>
<g>
</g>
<g>
</g>
<g>
</g>
<g>
</g>
<g>
</g>
<g>
</g>
<g>
</g>
<g>
</g>
<g>
</g>
<g>
</g>
<g>
</g>
<g>
</g>
</svg>
