<svg width="95.667" height="95.667" xmlns="http://www.w3.org/2000/svg">

 <g>
  <title>background</title>
  <rect fill="none" id="canvas_background" height="402" width="582" y="-1" x="-1"/>
 </g>
 <g>
  <title>Layer 1</title>
  <g transform="rotate(89.92656707763672 47.831295013427734,47.833499908447266) " id="svg_20">
   <path transform="rotate(179.9898223876953 39.87049865722656,47.83262634277343) " id="svg_3" d="m39.173,72.344l39.447,-22.777c0.619,-0.356 1,-1.018 1,-1.731s-0.381,-1.375 -1,-1.732l-39.447,-22.78c-0.619,-0.357 -1.381,-0.357 -2,0c-0.619,0.357 -1,1.018 -1,1.732l0,10.605l-34.052,0c-1.104,0 -2,0.896 -2,2l0,20.344c0,1.104 0.896,2 2,2l34.053,0l0,10.604c0,0.716 0.381,1.375 1,1.732c0.31,0.18 0.655,0.268 1,0.268c0.345,0 0.69,-0.088 0.999,-0.265z"/>
   <path id="svg_4" d="m80.775,0l-40.749,0c-1.104,0 -2,0.896 -2,2l0,6c0,1.104 0.896,2 2,2l40.749,0c2.632,0 4.771,2.141 4.771,4.771l0,66.125c0,2.631 -2.141,4.771 -4.771,4.771l-40.749,0c-1.104,0 -2,0.896 -2,2l0,6c0,1.104 0.896,2 2,2l40.749,0c8.146,0 14.771,-6.627 14.771,-14.771l0,-66.124c0,-8.145 -6.626,-14.772 -14.771,-14.772z"/>
   <g id="svg_5"/>
   <g id="svg_6"/>
   <g id="svg_7"/>
   <g id="svg_8"/>
   <g id="svg_9"/>
   <g id="svg_10"/>
   <g id="svg_11"/>
   <g id="svg_12"/>
   <g id="svg_13"/>
   <g id="svg_14"/>
   <g id="svg_15"/>
   <g id="svg_16"/>
   <g id="svg_17"/>
   <g id="svg_18"/>
   <g id="svg_19"/>
  </g>
 </g>
</svg>