<?xml version="1.0" encoding="iso-8859-1"?>
<!-- Generator: Adobe Illustrator 18.0.0, SVG Export Plug-In . SVG Version: 6.00 Build 0)  -->
<!DOCTYPE svg PUBLIC "-//W3C//DTD SVG 1.1//EN" "http://www.w3.org/Graphics/SVG/1.1/DTD/svg11.dtd">
<svg version="1.1" xmlns="http://www.w3.org/2000/svg" xmlns:xlink="http://www.w3.org/1999/xlink" x="0px" y="0px"
	 viewBox="0 0 487.176 487.176" style="enable-background:new 0 0 487.176 487.176;" xml:space="preserve">
<g>
	<path d="M205.72,130.072H69.908c-8.583,0-15.544,6.957-15.544,15.54v227.936
		c0,8.583,6.961,15.54,15.544,15.54H205.72c8.582,0,15.539-6.957,15.539-15.54V145.612
		C221.259,137.029,214.302,130.072,205.72,130.072z M188.715,356.545H86.913V162.617h101.802V356.545z"/>
	<path d="M205.72,409.875H69.908c-8.583,0-15.544,6.962-15.544,15.545v46.212
		c0,8.583,6.961,15.544,15.544,15.544H205.72c8.582,0,15.539-6.961,15.539-15.544V425.42
		C221.259,416.837,214.302,409.875,205.72,409.875z"/>
	<path d="M163.909,31.861c0.329-1.702,0.523-3.447,0.523-5.243C164.433,11.9,152.527,0,137.813,0
		c-14.718,0-26.604,11.9-26.604,26.618c0,1.796,0.192,3.541,0.526,5.225C79.442,35.96,54.364,63.248,54.364,96.667
		c0,8.583,6.961,15.544,15.544,15.544H205.72c8.582,0,15.539-6.961,15.539-15.544C221.259,63.262,196.198,35.979,163.909,31.861z"/>
	<path d="M417.268,130.072H281.457c-8.578,0-15.54,6.957-15.54,15.54v227.936
		c0,8.583,6.962,15.54,15.54,15.54h135.811c8.583,0,15.544-6.957,15.544-15.54V145.612
		C432.811,137.029,425.851,130.072,417.268,130.072z M400.263,356.545H298.461V162.617h101.802V356.545z"/>
	<path d="M417.268,409.875H281.457c-8.578,0-15.54,6.962-15.54,15.545v46.212
		c0,8.583,6.962,15.544,15.54,15.544h135.811c8.583,0,15.544-6.961,15.544-15.544V425.42
		C432.811,416.837,425.851,409.875,417.268,409.875z"/>
	<path d="M281.457,112.211h135.811c8.583,0,15.544-6.961,15.544-15.544c0-33.405-25.06-60.688-57.355-64.806
		c0.336-1.702,0.523-3.447,0.523-5.243C375.98,11.9,364.08,0,349.362,0c-14.713,0-26.601,11.9-26.601,26.618
		c0,1.796,0.192,3.541,0.522,5.225c-32.289,4.117-57.367,31.405-57.367,64.824C265.917,105.25,272.879,112.211,281.457,112.211z"/>
</g>
<g>
</g>
<g>
</g>
<g>
</g>
<g>
</g>
<g>
</g>
<g>
</g>
<g>
</g>
<g>
</g>
<g>
</g>
<g>
</g>
<g>
</g>
<g>
</g>
<g>
</g>
<g>
</g>
<g>
</g>
</svg>
