<?xml version="1.0" encoding="iso-8859-1"?>
<!-- Generator: Adobe Illustrator 18.0.0, SVG Export Plug-In . SVG Version: 6.00 Build 0)  -->
<!DOCTYPE svg PUBLIC "-//W3C//DTD SVG 1.1//EN" "http://www.w3.org/Graphics/SVG/1.1/DTD/svg11.dtd">
<svg version="1.1" xmlns="http://www.w3.org/2000/svg" xmlns:xlink="http://www.w3.org/1999/xlink" x="0px" y="0px"
	 viewBox="0 0 491.542 491.542" style="enable-background:new 0 0 491.542 491.542;" xml:space="preserve">
<g id="spice-rack-3">
	<path style="fill:#000100;" d="M229.866,304.139c0-13.565-11.006-24.575-24.574-24.575h-1.25
		c-14.4-29.795-28.945-88.388-36.625-155.496c22.318-8.941,37.875-28.014,37.875-50.287c0-25.268-20.004-46.354-47.268-53.22
		l0.014-14.239c0-1.682-0.67-3.281-1.852-4.465C154.999,0.67,153.398,0,151.721,0h-24.918c-3.484,0-6.316,2.833-6.316,6.321v14.252
		C93.237,27.44,73.252,48.53,73.252,73.78c0,22.273,15.552,41.346,37.888,50.287c-7.679,67.127-22.236,125.701-36.656,155.496
		h-1.231c-13.569,0-24.575,11.011-24.575,24.575c0,13.569,11.006,24.579,24.575,24.579c-13.569,0-24.575,11.007-24.575,24.576
		c0,9.855,5.84,18.289,14.207,22.21c-4.671,5.728-7.584,12.927-7.584,20.897v72.512c0,12.5,10.129,22.629,22.623,22.629h122.693
		c12.498,0,22.628-10.129,22.628-22.629v-72.512c0-7.971-2.913-15.17-7.585-20.897c8.367-3.921,14.207-12.354,14.207-22.21
		c0-13.569-11.006-24.576-24.574-24.576C218.86,328.718,229.866,317.708,229.866,304.139z"/>
	<path style="fill:#000100;" d="M442.866,353.294c0-13.569-11.006-24.576-24.576-24.576c13.57,0,24.576-11.01,24.576-24.579
		c0-13.565-11.006-24.575-24.576-24.575h-1.249c-14.401-29.795-28.945-88.388-36.624-155.496
		c22.322-8.941,37.873-28.014,37.873-50.287c0-25.268-20.002-46.354-47.266-53.22l0.018-14.239c0-1.682-0.674-3.281-1.856-4.465
		C368.003,0.67,366.402,0,364.72,0h-24.913c-3.488,0-6.32,2.833-6.32,6.321v14.252C306.236,27.44,286.25,48.53,286.25,73.78
		c0,22.273,15.557,41.346,37.893,50.287c-7.679,67.127-22.241,125.701-36.66,155.496h-1.232c-13.564,0-24.574,11.011-24.574,24.575
		c0,13.569,11.01,24.579,24.574,24.579c-13.564,0-24.574,11.007-24.574,24.576c0,9.855,5.84,18.289,14.207,22.21
		c-4.672,5.728-7.585,12.927-7.585,20.897v72.512c0,12.5,10.13,22.629,22.628,22.629H413.62c12.494,0,22.623-10.129,22.623-22.629
		v-72.512c0-7.971-2.913-15.17-7.584-20.897C437.026,371.583,442.866,363.149,442.866,353.294z"/>
</g>
<g>
</g>
<g>
</g>
<g>
</g>
<g>
</g>
<g>
</g>
<g>
</g>
<g>
</g>
<g>
</g>
<g>
</g>
<g>
</g>
<g>
</g>
<g>
</g>
<g>
</g>
<g>
</g>
<g>
</g>
</svg>
