<?xml version="1.0" encoding="iso-8859-1"?>
<!-- Generator: Adobe Illustrator 18.0.0, SVG Export Plug-In . SVG Version: 6.00 Build 0)  -->
<!DOCTYPE svg PUBLIC "-//W3C//DTD SVG 1.1//EN" "http://www.w3.org/Graphics/SVG/1.1/DTD/svg11.dtd">
<svg version="1.1" xmlns="http://www.w3.org/2000/svg" xmlns:xlink="http://www.w3.org/1999/xlink" x="0px" y="0px"
	 viewBox="0 0 41.223 41.223" style="enable-background:new 0 0 41.223 41.223;" xml:space="preserve">
<g>
	<path d="M34.034,18.111h-0.128c-1.726,0-2.92-0.428-3.551-1.271c-0.637-0.851-0.627-1.998-0.534-2.729h3.237
		c1.622,0,2.941-1.319,2.941-2.941V8.053c0-1.622-1.319-2.941-2.941-2.941H7.94c-1.622,0-2.941,1.319-2.941,2.941v3.117
		c0,1.622,1.319,2.941,2.941,2.941H11.4c0.092,0.729,0.102,1.874-0.527,2.722c-0.63,0.849-1.826,1.278-3.558,1.278H7.188
		c-3.755,0-7.181,4.136-7.188,8.677c-0.008,4.296,3.188,8.872,12.023,9.282c0.272,0.025,0.558,0.041,0.872,0.041h0.328h13.706h1.073
		c9.758-0.03,13.228-4.836,13.221-9.322C41.215,22.247,37.789,18.111,34.034,18.111z M13.226,34.111
		c-0.325-0.001-0.637-0.014-0.949-0.026c-0.979-0.078-1.663-0.342-1.868-0.743c-0.213-0.417,0.021-1.163,0.624-1.995
		c0.868-1.198,1.998-3.2,3.091-5.136c1.048-1.856,2.131-3.775,2.91-4.855c1.045-1.447,2.368-2.244,3.728-2.244
		c1.297,0,2.605,0.734,3.685,2.067c0.737,0.909,1.807,2.652,2.842,4.338c1.09,1.775,2.217,3.612,3.073,4.672
		c0.448,0.556,1.143,1.613,0.74,2.454c-0.433,0.906-2.031,1.469-4.172,1.469H13.226z"/>
	<circle cx="21.222" cy="23.111" r="1"/>
	<circle cx="18.222" cy="26.111" r="1"/>
	<circle cx="23.222" cy="28.111" r="1"/>
</g>
<g>
</g>
<g>
</g>
<g>
</g>
<g>
</g>
<g>
</g>
<g>
</g>
<g>
</g>
<g>
</g>
<g>
</g>
<g>
</g>
<g>
</g>
<g>
</g>
<g>
</g>
<g>
</g>
<g>
</g>
</svg>
