<?xml version="1.0" encoding="iso-8859-1"?>
<!-- Generator: Adobe Illustrator 18.0.0, SVG Export Plug-In . SVG Version: 6.00 Build 0)  -->
<!DOCTYPE svg PUBLIC "-//W3C//DTD SVG 1.1//EN" "http://www.w3.org/Graphics/SVG/1.1/DTD/svg11.dtd">
<svg version="1.1" xmlns="http://www.w3.org/2000/svg" xmlns:xlink="http://www.w3.org/1999/xlink" x="0px" y="0px"
	 viewBox="0 0 297 297" style="enable-background:new 0 0 297 297;" xml:space="preserve">
<g>
	<path d="M67.746,246.49H0v35.357c0,5.579,4.523,10.103,10.102,10.103h66.673c3.622,0,6.966-1.939,8.767-5.082
		c1.799-3.143,1.779-7.008-0.054-10.133L67.746,246.49z"/>
	<path d="M297,112.301c-10.801,12.682-26.827,20.742-44.7,20.742c-12.605,0-24.649-4.013-34.602-11.309
		c-7.182,5.266-15.457,8.811-24.244,10.382v42.901c0,26.855,17.708,49.645,42.058,57.329H297V112.301z"/>
	<path d="M44.699,118.901c13.932,0,26.397-6.449,34.602-16.535c8.204,10.086,20.667,16.535,34.598,16.535
		c13.933,0,26.396-6.448,34.601-16.536c8.205,10.088,20.669,16.536,34.603,16.536c13.931,0,26.393-6.449,34.598-16.535
		c8.205,10.086,20.67,16.535,34.602,16.535c24.648,0,44.7-20.185,44.7-44.994V15.154c0-5.579-4.523-10.103-10.103-10.103H10.694
		C5.154,5.051,0.056,9.512,0,15.052v58.753c-0.001,0.033,0,0.067,0,0.102C0,98.716,20.052,118.901,44.699,118.901z"/>
	<path d="M79.3,121.735c-9.952,7.296-21.996,11.309-34.602,11.309c-17.873,0-33.897-8.06-44.698-20.742v120.046h61.488
		c24.35-7.684,42.058-30.474,42.058-57.329v-42.901C94.759,130.545,86.482,127.001,79.3,121.735z"/>
	<path d="M229.255,246.49l-17.743,30.244c-1.833,3.125-1.853,6.99-0.054,10.133c1.801,3.143,5.145,5.082,8.767,5.082h66.673
		c5.579,0,10.103-4.523,10.103-10.103V246.49H229.255z"/>
</g>
<g>
</g>
<g>
</g>
<g>
</g>
<g>
</g>
<g>
</g>
<g>
</g>
<g>
</g>
<g>
</g>
<g>
</g>
<g>
</g>
<g>
</g>
<g>
</g>
<g>
</g>
<g>
</g>
<g>
</g>
</svg>
