<?xml version="1.0" encoding="iso-8859-1"?>
<!-- Generator: Adobe Illustrator 18.0.0, SVG Export Plug-In . SVG Version: 6.00 Build 0)  -->
<!DOCTYPE svg PUBLIC "-//W3C//DTD SVG 1.1//EN" "http://www.w3.org/Graphics/SVG/1.1/DTD/svg11.dtd">
<svg version="1.1" xmlns="http://www.w3.org/2000/svg" xmlns:xlink="http://www.w3.org/1999/xlink" x="0px" y="0px"
	 viewBox="0 0 276.213 276.213" style="enable-background:new 0 0 276.213 276.213;" xml:space="preserve">
<g>
	<path d="M263.567,208.212H12.645c-3.033,0-5.855,1.559-7.468,4.128c-1.613,2.568-1.793,5.786-0.477,8.519l7.883,16.355
		c3.682,7.641,11.414,12.498,19.896,12.498h211.254c8.482,0,16.214-4.857,19.896-12.498l7.883-16.355
		c1.316-2.732,1.137-5.95-0.477-8.519C269.421,209.771,266.6,208.212,263.567,208.212z"/>
	<path d="M276.176,181.393c-5.453-59.788-61.245-107.266-130.569-110.479v-8.656c6.572-2.889,11.168-9.448,11.168-17.088
		c0-10.31-8.358-18.668-18.668-18.668c-10.31,0-18.668,8.358-18.668,18.668c0,7.64,4.596,14.199,11.168,17.088v8.656
		C61.283,74.126,5.49,121.604,0.037,181.393c-0.226,2.468,0.6,4.916,2.27,6.747c1.669,1.831,4.034,2.883,6.512,2.883h258.577
		c2.479,0,4.845-1.044,6.516-2.877C275.581,186.313,276.402,183.862,276.176,181.393z M81.668,118.002
		c-19.462,11.083-32.954,27.886-37.99,47.313c-0.875,3.379-3.92,5.62-7.255,5.62c-0.623,0-1.256-0.078-1.887-0.242
		c-4.01-1.039-6.418-5.132-5.378-9.142c6.062-23.384,22.073-43.479,45.088-56.585c3.597-2.051,8.179-0.795,10.229,2.807
		C86.525,111.372,85.268,115.952,81.668,118.002z"/>
</g>
<g>
</g>
<g>
</g>
<g>
</g>
<g>
</g>
<g>
</g>
<g>
</g>
<g>
</g>
<g>
</g>
<g>
</g>
<g>
</g>
<g>
</g>
<g>
</g>
<g>
</g>
<g>
</g>
<g>
</g>
</svg>
