<?xml version="1.0" encoding="utf-8"?>
<!-- Generator: Adobe Illustrator 16.0.0, SVG Export Plug-In . SVG Version: 6.00 Build 0)  -->
<!DOCTYPE svg PUBLIC "-//W3C//DTD SVG 1.1//EN" "http://www.w3.org/Graphics/SVG/1.1/DTD/svg11.dtd">
<svg version="1.1" xmlns="http://www.w3.org/2000/svg" xmlns:xlink="http://www.w3.org/1999/xlink" x="0px" y="0px"
	 viewBox="0 0 512 512" enable-background="new 0 0 512 512" xml:space="preserve">
<g>
	<path d="M330.415,297.505c-12.931,10.525-28.318,17.802-45.137,21.139c-2.995,0.593-6.013,1.031-9.099,1.322
		c-2.35,2.889-4.848,5.62-7.452,8.222l20.263,77.205c1.169,0.25,2.348,0.497,3.542,0.733c28.24,5.599,52.147,4.969,53.406-1.385
		l13.374-98.697c-7.974-2.261-15.542-5.592-22.528-9.934C334.674,296.645,332.55,297.108,330.415,297.505z"/>
	<path d="M463.587,177.414c-1.25-0.247-2.461-0.215-3.703-0.366c3.44-5.901,6.22-12.328,7.621-19.416
		c6.817-34.387-15.553-67.788-49.94-74.588c-0.446-0.096-0.884-0.072-1.362-0.136c-0.605-23.724-17.449-44.708-41.707-49.519
		c-3.376-0.669-6.733-0.992-10.042-0.992c-18.56,0-35.53,10.126-44.717,25.934c-5.598-4.3-12.081-7.549-19.464-9.023
		c-3.094-0.613-6.176-0.908-9.214-0.908c-19.812,0-37.723,12.557-44.399,31.372c17.521,6.839,32.247,19.759,41.346,36.512
		c39.118,8.875,70.614,40.113,78.662,80.717c4.93,24.862,0.705,50.121-11.885,71.859c5.37,3.215,11.363,5.592,17.857,6.883
		c3.684,0.729,7.347,1.079,10.958,1.079c18.01,0,34.654-8.724,45.202-22.741c5.138,3.958,11.142,6.96,17.951,8.314
		c2.843,0.565,5.67,0.836,8.461,0.836c20.248,0,38.354-14.287,42.436-34.913C502.307,204.857,487.057,182.065,463.587,177.414z"/>
	<path d="M240.301,348.38c-7.515,3.603-15.467,6.293-23.734,7.928c-6.442,1.278-13.032,1.927-19.579,1.927
		c-8.461,0-16.804-1.043-24.962-3.114c-6.996,4.348-14.58,7.687-22.579,9.958l13.413,98.966c0.681,3.457,8.035,5.225,19.133,5.225
		c9.377,0,21.43-1.262,34.392-3.831c28.295-5.606,50.203-15.331,48.945-21.702L240.301,348.38z"/>
	<path d="M334.669,203.344c-6.686-33.735-36.315-56.985-69.452-56.985c-0.235,0-0.47,0.001-0.707,0.003
		c-4.638-22.291-24.683-39.392-46.643-39.392c-3.046,0-6.136,0.295-9.242,0.912c-7.406,1.465-13.905,4.73-19.512,9.031
		c-9.206-15.84-26.205-25.981-44.804-25.981c-3.317,0-6.682,0.322-10.066,0.991c-24.268,4.81-41.133,25.785-41.789,49.51
		c-35.538,6.104-58.235,40.573-51.411,74.996c1.41,7.104,4.189,13.53,7.629,19.455c-1.234,0.144-2.453,0.112-3.703,0.358
		c-23.517,4.667-38.799,27.507-34.132,51.016c4.089,20.67,22.227,34.985,42.526,34.985c2.795,0,5.634-0.271,8.481-0.836
		c6.817-1.346,12.829-4.364,17.974-8.33c10.568,14.052,27.26,22.788,45.31,22.788c3.615,0,7.282-0.351,10.97-1.079
		c11.882-2.365,22.115-8.33,29.872-16.469c9.66,4.71,20.196,7.299,31.015,7.299c4.376,0,8.8-0.422,13.232-1.302
		c21.335-4.221,38.465-18.166,48.683-36.92c2.632,0.235,5.284,0.375,7.952,0.375c3.986,0,8.011-0.318,12.077-1.123
		C317.332,279.032,342.283,241.737,334.669,203.344z"/>
</g>
</svg>
