<?xml version="1.0" encoding="iso-8859-1"?>
<!-- Generator: Adobe Illustrator 19.0.0, SVG Export Plug-In . SVG Version: 6.00 Build 0)  -->
<svg version="1.1" xmlns="http://www.w3.org/2000/svg" xmlns:xlink="http://www.w3.org/1999/xlink" x="0px" y="0px"
	 viewBox="0 0 470 470" style="enable-background:new 0 0 470 470;" xml:space="preserve">
<g>
	<path d="M130.313,0v76.26c4.922-0.572,9.925-0.875,15-0.875c5.075,0,10.078,0.304,15,0.875V0H130.313z"/>
	<path d="M160.313,468.523c34.558-6.859,60.734-36.95,61.595-73.315l-61.595-61.596V468.523z"/>
	<path d="M160.313,291.186l67.932,67.933c11.17-15.294,18.21-33.79,19.481-53.858l-87.413-87.215V291.186z"/>
	<path d="M160.313,76.26v99.407l95.089,94.873c11.759-19.413,18.532-42.181,18.532-66.535
		C273.935,138.045,224.28,83.691,160.313,76.26z"/>
	<path d="M16.692,204.006c0,24.335,6.762,47.087,18.505,66.49l95.117-95.117V76.26C66.346,83.691,16.692,138.045,16.692,204.006z"/>
	<path d="M130.313,468.523V333.614l-61.596,61.593C69.579,431.572,95.755,461.663,130.313,468.523z"/>
	<path d="M62.381,359.118l67.933-67.93v-73.383l-87.416,87.416C44.162,325.304,51.204,343.814,62.381,359.118z"/>
	<path d="M414.165,364.611c18.136-6.585,31.127-23.987,31.127-44.37c0-1.599-0.081-3.212-0.241-4.793l-12.817-126.734h-52.925v-30
		H429.2L416.55,33.633C414.611,14.459,398.601,0,379.309,0s-35.302,14.459-37.241,33.633l-21.434,211.938h58.675v30H317.6
		l-4.033,39.876c-0.16,1.585-0.242,3.198-0.242,4.794c0,20.382,12.992,37.785,31.128,44.37
		c-3.743,30.156-17.312,58.045-39.142,79.876l21.213,21.213c16.74-16.74,29.493-36.404,37.786-57.84V470h30v-62.139
		c8.293,21.436,21.045,41.1,37.786,57.84l21.213-21.213C431.478,422.657,417.908,394.767,414.165,364.611z"/>
</g>
<g>
</g>
<g>
</g>
<g>
</g>
<g>
</g>
<g>
</g>
<g>
</g>
<g>
</g>
<g>
</g>
<g>
</g>
<g>
</g>
<g>
</g>
<g>
</g>
<g>
</g>
<g>
</g>
<g>
</g>
</svg>
